G04 (created by PCBNEW (2013-07-07 BZR 4022)-stable) date 2/5/2016 12:24:55 PM*
%MOIN*%
G04 Gerber Fmt 3.4, Leading zero omitted, Abs format*
%FSLAX34Y34*%
G01*
G70*
G90*
G04 APERTURE LIST*
%ADD10C,0.00590551*%
%ADD11C,0.011811*%
%ADD12C,0.0118*%
%ADD13C,0.012*%
%ADD14C,0.015*%
%ADD15C,0.008*%
G04 APERTURE END LIST*
G54D10*
G54D11*
X22711Y-82814D02*
X22711Y-82223D01*
X22851Y-82223D01*
X22935Y-82251D01*
X22992Y-82307D01*
X23020Y-82364D01*
X23048Y-82476D01*
X23048Y-82560D01*
X23020Y-82673D01*
X22992Y-82729D01*
X22935Y-82785D01*
X22851Y-82814D01*
X22711Y-82814D01*
X23414Y-82223D02*
X23526Y-82223D01*
X23582Y-82251D01*
X23639Y-82307D01*
X23667Y-82420D01*
X23667Y-82617D01*
X23639Y-82729D01*
X23582Y-82785D01*
X23526Y-82814D01*
X23414Y-82814D01*
X23357Y-82785D01*
X23301Y-82729D01*
X23273Y-82617D01*
X23273Y-82420D01*
X23301Y-82307D01*
X23357Y-82251D01*
X23414Y-82223D01*
X23835Y-82223D02*
X24173Y-82223D01*
X24004Y-82814D02*
X24004Y-82223D01*
X37309Y-82595D02*
X37590Y-82595D01*
X37253Y-82764D02*
X37450Y-82173D01*
X37646Y-82764D01*
X50943Y-85289D02*
X50943Y-84698D01*
X51084Y-84698D01*
X51168Y-84726D01*
X51225Y-84782D01*
X51253Y-84839D01*
X51281Y-84951D01*
X51281Y-85035D01*
X51253Y-85148D01*
X51225Y-85204D01*
X51168Y-85260D01*
X51084Y-85289D01*
X50943Y-85289D01*
X51534Y-85289D02*
X51534Y-84698D01*
X52124Y-84726D02*
X52068Y-84698D01*
X51984Y-84698D01*
X51900Y-84726D01*
X51843Y-84782D01*
X51815Y-84839D01*
X51787Y-84951D01*
X51787Y-85035D01*
X51815Y-85148D01*
X51843Y-85204D01*
X51900Y-85260D01*
X51984Y-85289D01*
X52040Y-85289D01*
X52124Y-85260D01*
X52153Y-85232D01*
X52153Y-85035D01*
X52040Y-85035D01*
X52406Y-85289D02*
X52406Y-84698D01*
X52603Y-84698D02*
X52940Y-84698D01*
X52771Y-85289D02*
X52771Y-84698D01*
G54D12*
X13154Y-61619D02*
X13154Y-62777D01*
X13158Y-62785D02*
G75*
G03X14725Y-63178I980J586D01*
G74*
G01*
X14718Y-61214D02*
G75*
G03X13154Y-61618I-579J-983D01*
G74*
G01*
X14138Y-63340D02*
G75*
G03X15280Y-62198I0J1142D01*
G74*
G01*
X15280Y-62198D02*
G75*
G03X14138Y-61056I-1142J0D01*
G74*
G01*
X15122Y-62198D02*
G75*
G03X15122Y-62198I-984J0D01*
G74*
G01*
X17091Y-30123D02*
X17091Y-31281D01*
X17095Y-31289D02*
G75*
G03X18662Y-31682I980J586D01*
G74*
G01*
X18655Y-29718D02*
G75*
G03X17091Y-30122I-579J-983D01*
G74*
G01*
X18075Y-31844D02*
G75*
G03X19217Y-30702I0J1142D01*
G74*
G01*
X19217Y-30702D02*
G75*
G03X18075Y-29560I-1142J0D01*
G74*
G01*
X19059Y-30702D02*
G75*
G03X19059Y-30702I-984J0D01*
G74*
G01*
X17091Y-26186D02*
X17091Y-27344D01*
X17095Y-27351D02*
G75*
G03X18662Y-27745I980J586D01*
G74*
G01*
X18655Y-25781D02*
G75*
G03X17091Y-26185I-579J-983D01*
G74*
G01*
X18075Y-27907D02*
G75*
G03X19217Y-26765I0J1142D01*
G74*
G01*
X19217Y-26765D02*
G75*
G03X18075Y-25623I-1142J0D01*
G74*
G01*
X19059Y-26765D02*
G75*
G03X19059Y-26765I-984J0D01*
G74*
G01*
X15123Y-73430D02*
X15123Y-74588D01*
X15126Y-74596D02*
G75*
G03X16693Y-74989I980J586D01*
G74*
G01*
X16686Y-73025D02*
G75*
G03X15123Y-73429I-579J-983D01*
G74*
G01*
X16107Y-75151D02*
G75*
G03X17249Y-74009I0J1142D01*
G74*
G01*
X17249Y-74009D02*
G75*
G03X16107Y-72867I-1142J0D01*
G74*
G01*
X17091Y-74009D02*
G75*
G03X17091Y-74009I-984J0D01*
G74*
G01*
X15123Y-49808D02*
X15123Y-50966D01*
X15126Y-50974D02*
G75*
G03X16693Y-51367I980J586D01*
G74*
G01*
X16686Y-49403D02*
G75*
G03X15123Y-49807I-579J-983D01*
G74*
G01*
X16107Y-51529D02*
G75*
G03X17249Y-50387I0J1142D01*
G74*
G01*
X17249Y-50387D02*
G75*
G03X16107Y-49245I-1142J0D01*
G74*
G01*
X17091Y-50387D02*
G75*
G03X17091Y-50387I-984J0D01*
G74*
G01*
X17091Y-65556D02*
X17091Y-66714D01*
X17095Y-66722D02*
G75*
G03X18662Y-67115I980J586D01*
G74*
G01*
X18655Y-65151D02*
G75*
G03X17091Y-65555I-579J-983D01*
G74*
G01*
X18075Y-67277D02*
G75*
G03X19217Y-66135I0J1142D01*
G74*
G01*
X19217Y-66135D02*
G75*
G03X18075Y-64993I-1142J0D01*
G74*
G01*
X19059Y-66135D02*
G75*
G03X19059Y-66135I-984J0D01*
G74*
G01*
X17091Y-61619D02*
X17091Y-62777D01*
X17095Y-62785D02*
G75*
G03X18662Y-63178I980J586D01*
G74*
G01*
X18655Y-61214D02*
G75*
G03X17091Y-61618I-579J-983D01*
G74*
G01*
X18075Y-63340D02*
G75*
G03X19217Y-62198I0J1142D01*
G74*
G01*
X19217Y-62198D02*
G75*
G03X18075Y-61056I-1142J0D01*
G74*
G01*
X19059Y-62198D02*
G75*
G03X19059Y-62198I-984J0D01*
G74*
G01*
X17091Y-57682D02*
X17091Y-58840D01*
X17095Y-58848D02*
G75*
G03X18662Y-59241I980J586D01*
G74*
G01*
X18655Y-57277D02*
G75*
G03X17091Y-57681I-579J-983D01*
G74*
G01*
X18075Y-59403D02*
G75*
G03X19217Y-58261I0J1142D01*
G74*
G01*
X19217Y-58261D02*
G75*
G03X18075Y-57119I-1142J0D01*
G74*
G01*
X19059Y-58261D02*
G75*
G03X19059Y-58261I-984J0D01*
G74*
G01*
X17091Y-53745D02*
X17091Y-54903D01*
X17095Y-54911D02*
G75*
G03X18662Y-55304I980J586D01*
G74*
G01*
X18655Y-53340D02*
G75*
G03X17091Y-53744I-579J-983D01*
G74*
G01*
X18075Y-55466D02*
G75*
G03X19217Y-54324I0J1142D01*
G74*
G01*
X19217Y-54324D02*
G75*
G03X18075Y-53182I-1142J0D01*
G74*
G01*
X19059Y-54324D02*
G75*
G03X19059Y-54324I-984J0D01*
G74*
G01*
X13154Y-65556D02*
X13154Y-66714D01*
X13158Y-66722D02*
G75*
G03X14725Y-67115I980J586D01*
G74*
G01*
X14718Y-65151D02*
G75*
G03X13154Y-65555I-579J-983D01*
G74*
G01*
X14138Y-67277D02*
G75*
G03X15280Y-66135I0J1142D01*
G74*
G01*
X15280Y-66135D02*
G75*
G03X14138Y-64993I-1142J0D01*
G74*
G01*
X15122Y-66135D02*
G75*
G03X15122Y-66135I-984J0D01*
G74*
G01*
X17091Y-37997D02*
X17091Y-39155D01*
X17095Y-39163D02*
G75*
G03X18662Y-39556I980J586D01*
G74*
G01*
X18655Y-37592D02*
G75*
G03X17091Y-37996I-579J-983D01*
G74*
G01*
X18075Y-39718D02*
G75*
G03X19217Y-38576I0J1142D01*
G74*
G01*
X19217Y-38576D02*
G75*
G03X18075Y-37434I-1142J0D01*
G74*
G01*
X19059Y-38576D02*
G75*
G03X19059Y-38576I-984J0D01*
G74*
G01*
X13154Y-57682D02*
X13154Y-58840D01*
X13158Y-58848D02*
G75*
G03X14725Y-59241I980J586D01*
G74*
G01*
X14718Y-57277D02*
G75*
G03X13154Y-57681I-579J-983D01*
G74*
G01*
X14138Y-59403D02*
G75*
G03X15280Y-58261I0J1142D01*
G74*
G01*
X15280Y-58261D02*
G75*
G03X14138Y-57119I-1142J0D01*
G74*
G01*
X15122Y-58261D02*
G75*
G03X15122Y-58261I-984J0D01*
G74*
G01*
X13154Y-53745D02*
X13154Y-54903D01*
X13158Y-54911D02*
G75*
G03X14725Y-55304I980J586D01*
G74*
G01*
X14718Y-53340D02*
G75*
G03X13154Y-53744I-579J-983D01*
G74*
G01*
X14138Y-55466D02*
G75*
G03X15280Y-54324I0J1142D01*
G74*
G01*
X15280Y-54324D02*
G75*
G03X14138Y-53182I-1142J0D01*
G74*
G01*
X15122Y-54324D02*
G75*
G03X15122Y-54324I-984J0D01*
G74*
G01*
X43087Y-15938D02*
X44245Y-15938D01*
X44252Y-15934D02*
G75*
G03X44646Y-14367I-586J980D01*
G74*
G01*
X42682Y-14374D02*
G75*
G03X43086Y-15938I983J-579D01*
G74*
G01*
X44808Y-14954D02*
G75*
G03X43666Y-13812I-1142J0D01*
G74*
G01*
X43666Y-13812D02*
G75*
G03X42524Y-14954I0J-1142D01*
G74*
G01*
X44650Y-14954D02*
G75*
G03X44650Y-14954I-984J0D01*
G74*
G01*
X23402Y-13969D02*
X24560Y-13969D01*
X24567Y-13966D02*
G75*
G03X24961Y-12399I-586J980D01*
G74*
G01*
X22997Y-12406D02*
G75*
G03X23401Y-13969I983J-579D01*
G74*
G01*
X25123Y-12985D02*
G75*
G03X23981Y-11843I-1142J0D01*
G74*
G01*
X23981Y-11843D02*
G75*
G03X22839Y-12985I0J-1142D01*
G74*
G01*
X24965Y-12985D02*
G75*
G03X24965Y-12985I-984J0D01*
G74*
G01*
X19465Y-15938D02*
X20623Y-15938D01*
X20630Y-15934D02*
G75*
G03X21024Y-14367I-586J980D01*
G74*
G01*
X19060Y-14374D02*
G75*
G03X19464Y-15938I983J-579D01*
G74*
G01*
X21186Y-14954D02*
G75*
G03X20044Y-13812I-1142J0D01*
G74*
G01*
X20044Y-13812D02*
G75*
G03X18902Y-14954I0J-1142D01*
G74*
G01*
X21028Y-14954D02*
G75*
G03X21028Y-14954I-984J0D01*
G74*
G01*
X31276Y-13969D02*
X32434Y-13969D01*
X32441Y-13966D02*
G75*
G03X32835Y-12399I-586J980D01*
G74*
G01*
X30871Y-12406D02*
G75*
G03X31275Y-13969I983J-579D01*
G74*
G01*
X32997Y-12985D02*
G75*
G03X31855Y-11843I-1141J0D01*
G74*
G01*
X31855Y-11843D02*
G75*
G03X30713Y-12985I0J-1142D01*
G74*
G01*
X32839Y-12985D02*
G75*
G03X32839Y-12985I-983J0D01*
G74*
G01*
X35213Y-13969D02*
X36371Y-13969D01*
X36378Y-13966D02*
G75*
G03X36772Y-12399I-586J980D01*
G74*
G01*
X34808Y-12406D02*
G75*
G03X35212Y-13969I983J-579D01*
G74*
G01*
X36934Y-12985D02*
G75*
G03X35792Y-11843I-1142J0D01*
G74*
G01*
X35792Y-11843D02*
G75*
G03X34650Y-12985I0J-1142D01*
G74*
G01*
X36776Y-12985D02*
G75*
G03X36776Y-12985I-984J0D01*
G74*
G01*
X35213Y-45465D02*
X36371Y-45465D01*
X36378Y-45462D02*
G75*
G03X36772Y-43895I-586J980D01*
G74*
G01*
X34808Y-43902D02*
G75*
G03X35212Y-45465I983J-579D01*
G74*
G01*
X36934Y-44481D02*
G75*
G03X35792Y-43339I-1142J0D01*
G74*
G01*
X35792Y-43339D02*
G75*
G03X34650Y-44481I0J-1142D01*
G74*
G01*
X36776Y-44481D02*
G75*
G03X36776Y-44481I-984J0D01*
G74*
G01*
X19465Y-47434D02*
X20623Y-47434D01*
X20630Y-47430D02*
G75*
G03X21024Y-45863I-586J980D01*
G74*
G01*
X19060Y-45870D02*
G75*
G03X19464Y-47434I983J-579D01*
G74*
G01*
X21186Y-46450D02*
G75*
G03X20044Y-45308I-1142J0D01*
G74*
G01*
X20044Y-45308D02*
G75*
G03X18902Y-46450I0J-1142D01*
G74*
G01*
X21028Y-46450D02*
G75*
G03X21028Y-46450I-984J0D01*
G74*
G01*
X43087Y-47434D02*
X44245Y-47434D01*
X44252Y-47430D02*
G75*
G03X44646Y-45863I-586J980D01*
G74*
G01*
X42682Y-45870D02*
G75*
G03X43086Y-47434I983J-579D01*
G74*
G01*
X44808Y-46450D02*
G75*
G03X43666Y-45308I-1142J0D01*
G74*
G01*
X43666Y-45308D02*
G75*
G03X42524Y-46450I0J-1142D01*
G74*
G01*
X44650Y-46450D02*
G75*
G03X44650Y-46450I-984J0D01*
G74*
G01*
X39150Y-49402D02*
X40308Y-49402D01*
X40315Y-49399D02*
G75*
G03X40709Y-47832I-586J980D01*
G74*
G01*
X38745Y-47839D02*
G75*
G03X39149Y-49402I983J-579D01*
G74*
G01*
X40871Y-48418D02*
G75*
G03X39729Y-47276I-1142J0D01*
G74*
G01*
X39729Y-47276D02*
G75*
G03X38587Y-48418I0J-1141D01*
G74*
G01*
X40713Y-48418D02*
G75*
G03X40713Y-48418I-984J0D01*
G74*
G01*
X35213Y-49402D02*
X36371Y-49402D01*
X36378Y-49399D02*
G75*
G03X36772Y-47832I-586J980D01*
G74*
G01*
X34808Y-47839D02*
G75*
G03X35212Y-49402I983J-579D01*
G74*
G01*
X36934Y-48418D02*
G75*
G03X35792Y-47276I-1142J0D01*
G74*
G01*
X35792Y-47276D02*
G75*
G03X34650Y-48418I0J-1141D01*
G74*
G01*
X36776Y-48418D02*
G75*
G03X36776Y-48418I-984J0D01*
G74*
G01*
X31276Y-49402D02*
X32434Y-49402D01*
X32441Y-49399D02*
G75*
G03X32835Y-47832I-586J980D01*
G74*
G01*
X30871Y-47839D02*
G75*
G03X31275Y-49402I983J-579D01*
G74*
G01*
X32997Y-48418D02*
G75*
G03X31855Y-47276I-1141J0D01*
G74*
G01*
X31855Y-47276D02*
G75*
G03X30713Y-48418I0J-1141D01*
G74*
G01*
X32839Y-48418D02*
G75*
G03X32839Y-48418I-983J0D01*
G74*
G01*
X27339Y-49402D02*
X28497Y-49402D01*
X28504Y-49399D02*
G75*
G03X28898Y-47832I-586J980D01*
G74*
G01*
X26934Y-47839D02*
G75*
G03X27338Y-49402I983J-579D01*
G74*
G01*
X29060Y-48418D02*
G75*
G03X27918Y-47276I-1142J0D01*
G74*
G01*
X27918Y-47276D02*
G75*
G03X26776Y-48418I0J-1141D01*
G74*
G01*
X28902Y-48418D02*
G75*
G03X28902Y-48418I-984J0D01*
G74*
G01*
X27339Y-45465D02*
X28497Y-45465D01*
X28504Y-45462D02*
G75*
G03X28898Y-43895I-586J980D01*
G74*
G01*
X26934Y-43902D02*
G75*
G03X27338Y-45465I983J-579D01*
G74*
G01*
X29060Y-44481D02*
G75*
G03X27918Y-43339I-1142J0D01*
G74*
G01*
X27918Y-43339D02*
G75*
G03X26776Y-44481I0J-1142D01*
G74*
G01*
X28902Y-44481D02*
G75*
G03X28902Y-44481I-984J0D01*
G74*
G01*
X31276Y-45465D02*
X32434Y-45465D01*
X32441Y-45462D02*
G75*
G03X32835Y-43895I-586J980D01*
G74*
G01*
X30871Y-43902D02*
G75*
G03X31275Y-45465I983J-579D01*
G74*
G01*
X32997Y-44481D02*
G75*
G03X31855Y-43339I-1141J0D01*
G74*
G01*
X31855Y-43339D02*
G75*
G03X30713Y-44481I0J-1142D01*
G74*
G01*
X32839Y-44481D02*
G75*
G03X32839Y-44481I-983J0D01*
G74*
G01*
X17091Y-34060D02*
X17091Y-35218D01*
X17095Y-35226D02*
G75*
G03X18662Y-35619I980J586D01*
G74*
G01*
X18655Y-33655D02*
G75*
G03X17091Y-34059I-579J-983D01*
G74*
G01*
X18075Y-35781D02*
G75*
G03X19217Y-34639I0J1142D01*
G74*
G01*
X19217Y-34639D02*
G75*
G03X18075Y-33497I-1142J0D01*
G74*
G01*
X19059Y-34639D02*
G75*
G03X19059Y-34639I-984J0D01*
G74*
G01*
X39150Y-45465D02*
X40308Y-45465D01*
X40315Y-45462D02*
G75*
G03X40709Y-43895I-586J980D01*
G74*
G01*
X38745Y-43902D02*
G75*
G03X39149Y-45465I983J-579D01*
G74*
G01*
X40871Y-44481D02*
G75*
G03X39729Y-43339I-1142J0D01*
G74*
G01*
X39729Y-43339D02*
G75*
G03X38587Y-44481I0J-1142D01*
G74*
G01*
X40713Y-44481D02*
G75*
G03X40713Y-44481I-984J0D01*
G74*
G01*
X13154Y-37997D02*
X13154Y-39155D01*
X13158Y-39163D02*
G75*
G03X14725Y-39556I980J586D01*
G74*
G01*
X14718Y-37592D02*
G75*
G03X13154Y-37996I-579J-983D01*
G74*
G01*
X14138Y-39718D02*
G75*
G03X15280Y-38576I0J1142D01*
G74*
G01*
X15280Y-38576D02*
G75*
G03X14138Y-37434I-1142J0D01*
G74*
G01*
X15122Y-38576D02*
G75*
G03X15122Y-38576I-984J0D01*
G74*
G01*
X17091Y-22249D02*
X17091Y-23407D01*
X17095Y-23414D02*
G75*
G03X18662Y-23808I980J586D01*
G74*
G01*
X18655Y-21844D02*
G75*
G03X17091Y-22248I-579J-983D01*
G74*
G01*
X18075Y-23970D02*
G75*
G03X19217Y-22828I0J1142D01*
G74*
G01*
X19217Y-22828D02*
G75*
G03X18075Y-21686I-1142J0D01*
G74*
G01*
X19059Y-22828D02*
G75*
G03X19059Y-22828I-984J0D01*
G74*
G01*
X15123Y-18312D02*
X15123Y-19470D01*
X15126Y-19477D02*
G75*
G03X16693Y-19871I980J586D01*
G74*
G01*
X16686Y-17907D02*
G75*
G03X15123Y-18311I-579J-983D01*
G74*
G01*
X16107Y-20033D02*
G75*
G03X17249Y-18891I0J1142D01*
G74*
G01*
X17249Y-18891D02*
G75*
G03X16107Y-17749I-1142J0D01*
G74*
G01*
X17091Y-18891D02*
G75*
G03X17091Y-18891I-984J0D01*
G74*
G01*
X13154Y-26186D02*
X13154Y-27344D01*
X13158Y-27351D02*
G75*
G03X14725Y-27745I980J586D01*
G74*
G01*
X14718Y-25781D02*
G75*
G03X13154Y-26185I-579J-983D01*
G74*
G01*
X14138Y-27907D02*
G75*
G03X15280Y-26765I0J1142D01*
G74*
G01*
X15280Y-26765D02*
G75*
G03X14138Y-25623I-1142J0D01*
G74*
G01*
X15122Y-26765D02*
G75*
G03X15122Y-26765I-984J0D01*
G74*
G01*
X13154Y-22249D02*
X13154Y-23407D01*
X13158Y-23414D02*
G75*
G03X14725Y-23808I980J586D01*
G74*
G01*
X14718Y-21844D02*
G75*
G03X13154Y-22248I-579J-983D01*
G74*
G01*
X14138Y-23970D02*
G75*
G03X15280Y-22828I0J1142D01*
G74*
G01*
X15280Y-22828D02*
G75*
G03X14138Y-21686I-1142J0D01*
G74*
G01*
X15122Y-22828D02*
G75*
G03X15122Y-22828I-984J0D01*
G74*
G01*
X13154Y-30123D02*
X13154Y-31281D01*
X13158Y-31289D02*
G75*
G03X14725Y-31682I980J586D01*
G74*
G01*
X14718Y-29718D02*
G75*
G03X13154Y-30122I-579J-983D01*
G74*
G01*
X14138Y-31844D02*
G75*
G03X15280Y-30702I0J1142D01*
G74*
G01*
X15280Y-30702D02*
G75*
G03X14138Y-29560I-1142J0D01*
G74*
G01*
X15122Y-30702D02*
G75*
G03X15122Y-30702I-984J0D01*
G74*
G01*
X27339Y-13969D02*
X28497Y-13969D01*
X28504Y-13966D02*
G75*
G03X28898Y-12399I-586J980D01*
G74*
G01*
X26934Y-12406D02*
G75*
G03X27338Y-13969I983J-579D01*
G74*
G01*
X29060Y-12985D02*
G75*
G03X27918Y-11843I-1142J0D01*
G74*
G01*
X27918Y-11843D02*
G75*
G03X26776Y-12985I0J-1142D01*
G74*
G01*
X28902Y-12985D02*
G75*
G03X28902Y-12985I-984J0D01*
G74*
G01*
X27339Y-76804D02*
X28497Y-76804D01*
X28504Y-76800D02*
G75*
G03X28898Y-75233I-586J980D01*
G74*
G01*
X26934Y-75241D02*
G75*
G03X27338Y-76804I983J-579D01*
G74*
G01*
X29060Y-75820D02*
G75*
G03X27918Y-74678I-1142J0D01*
G74*
G01*
X27918Y-74678D02*
G75*
G03X26776Y-75820I0J-1142D01*
G74*
G01*
X28902Y-75820D02*
G75*
G03X28902Y-75820I-984J0D01*
G74*
G01*
X44650Y-61619D02*
X44650Y-62777D01*
X44654Y-62785D02*
G75*
G03X46221Y-63178I980J586D01*
G74*
G01*
X46214Y-61214D02*
G75*
G03X44650Y-61618I-579J-983D01*
G74*
G01*
X45634Y-63340D02*
G75*
G03X46776Y-62198I0J1142D01*
G74*
G01*
X46776Y-62198D02*
G75*
G03X45634Y-61056I-1142J0D01*
G74*
G01*
X46618Y-62198D02*
G75*
G03X46618Y-62198I-984J0D01*
G74*
G01*
X44650Y-69493D02*
X44650Y-70651D01*
X44654Y-70659D02*
G75*
G03X46221Y-71052I980J586D01*
G74*
G01*
X46214Y-69088D02*
G75*
G03X44650Y-69492I-579J-983D01*
G74*
G01*
X45634Y-71214D02*
G75*
G03X46776Y-70072I0J1142D01*
G74*
G01*
X46776Y-70072D02*
G75*
G03X45634Y-68930I-1142J0D01*
G74*
G01*
X46618Y-70072D02*
G75*
G03X46618Y-70072I-984J0D01*
G74*
G01*
X48587Y-69493D02*
X48587Y-70651D01*
X48591Y-70659D02*
G75*
G03X50158Y-71052I980J586D01*
G74*
G01*
X50151Y-69088D02*
G75*
G03X48587Y-69492I-579J-983D01*
G74*
G01*
X49571Y-71214D02*
G75*
G03X50713Y-70072I0J1142D01*
G74*
G01*
X50713Y-70072D02*
G75*
G03X49571Y-68930I-1142J0D01*
G74*
G01*
X50555Y-70072D02*
G75*
G03X50555Y-70072I-984J0D01*
G74*
G01*
X48587Y-65556D02*
X48587Y-66714D01*
X48591Y-66722D02*
G75*
G03X50158Y-67115I980J586D01*
G74*
G01*
X50151Y-65151D02*
G75*
G03X48587Y-65555I-579J-983D01*
G74*
G01*
X49571Y-67277D02*
G75*
G03X50713Y-66135I0J1142D01*
G74*
G01*
X50713Y-66135D02*
G75*
G03X49571Y-64993I-1142J0D01*
G74*
G01*
X50555Y-66135D02*
G75*
G03X50555Y-66135I-984J0D01*
G74*
G01*
X48587Y-61619D02*
X48587Y-62777D01*
X48591Y-62785D02*
G75*
G03X50158Y-63178I980J586D01*
G74*
G01*
X50151Y-61214D02*
G75*
G03X48587Y-61618I-579J-983D01*
G74*
G01*
X49571Y-63340D02*
G75*
G03X50713Y-62198I0J1142D01*
G74*
G01*
X50713Y-62198D02*
G75*
G03X49571Y-61056I-1142J0D01*
G74*
G01*
X50555Y-62198D02*
G75*
G03X50555Y-62198I-984J0D01*
G74*
G01*
X39150Y-76804D02*
X40308Y-76804D01*
X40315Y-76800D02*
G75*
G03X40709Y-75233I-586J980D01*
G74*
G01*
X38745Y-75241D02*
G75*
G03X39149Y-76804I983J-579D01*
G74*
G01*
X40871Y-75820D02*
G75*
G03X39729Y-74678I-1142J0D01*
G74*
G01*
X39729Y-74678D02*
G75*
G03X38587Y-75820I0J-1142D01*
G74*
G01*
X40713Y-75820D02*
G75*
G03X40713Y-75820I-984J0D01*
G74*
G01*
X35213Y-76804D02*
X36371Y-76804D01*
X36378Y-76800D02*
G75*
G03X36772Y-75233I-586J980D01*
G74*
G01*
X34808Y-75241D02*
G75*
G03X35212Y-76804I983J-579D01*
G74*
G01*
X36934Y-75820D02*
G75*
G03X35792Y-74678I-1142J0D01*
G74*
G01*
X35792Y-74678D02*
G75*
G03X34650Y-75820I0J-1142D01*
G74*
G01*
X36776Y-75820D02*
G75*
G03X36776Y-75820I-984J0D01*
G74*
G01*
X31276Y-76804D02*
X32434Y-76804D01*
X32441Y-76800D02*
G75*
G03X32835Y-75233I-586J980D01*
G74*
G01*
X30871Y-75241D02*
G75*
G03X31275Y-76804I983J-579D01*
G74*
G01*
X32997Y-75820D02*
G75*
G03X31855Y-74678I-1141J0D01*
G74*
G01*
X31855Y-74678D02*
G75*
G03X30713Y-75820I0J-1142D01*
G74*
G01*
X32839Y-75820D02*
G75*
G03X32839Y-75820I-983J0D01*
G74*
G01*
X35213Y-17906D02*
X36371Y-17906D01*
X36378Y-17903D02*
G75*
G03X36772Y-16336I-586J980D01*
G74*
G01*
X34808Y-16343D02*
G75*
G03X35212Y-17906I983J-579D01*
G74*
G01*
X36934Y-16922D02*
G75*
G03X35792Y-15780I-1142J0D01*
G74*
G01*
X35792Y-15780D02*
G75*
G03X34650Y-16922I0J-1142D01*
G74*
G01*
X36776Y-16922D02*
G75*
G03X36776Y-16922I-984J0D01*
G74*
G01*
X27339Y-80741D02*
X28497Y-80741D01*
X28504Y-80737D02*
G75*
G03X28898Y-79170I-586J980D01*
G74*
G01*
X26934Y-79178D02*
G75*
G03X27338Y-80741I983J-579D01*
G74*
G01*
X29060Y-79757D02*
G75*
G03X27918Y-78615I-1142J0D01*
G74*
G01*
X27918Y-78615D02*
G75*
G03X26776Y-79757I0J-1142D01*
G74*
G01*
X28902Y-79757D02*
G75*
G03X28902Y-79757I-984J0D01*
G74*
G01*
X31276Y-80741D02*
X32434Y-80741D01*
X32441Y-80737D02*
G75*
G03X32835Y-79170I-586J980D01*
G74*
G01*
X30871Y-79178D02*
G75*
G03X31275Y-80741I983J-579D01*
G74*
G01*
X32997Y-79757D02*
G75*
G03X31855Y-78615I-1141J0D01*
G74*
G01*
X31855Y-78615D02*
G75*
G03X30713Y-79757I0J-1142D01*
G74*
G01*
X32839Y-79757D02*
G75*
G03X32839Y-79757I-983J0D01*
G74*
G01*
X35213Y-80741D02*
X36371Y-80741D01*
X36378Y-80737D02*
G75*
G03X36772Y-79170I-586J980D01*
G74*
G01*
X34808Y-79178D02*
G75*
G03X35212Y-80741I983J-579D01*
G74*
G01*
X36934Y-79757D02*
G75*
G03X35792Y-78615I-1142J0D01*
G74*
G01*
X35792Y-78615D02*
G75*
G03X34650Y-79757I0J-1142D01*
G74*
G01*
X36776Y-79757D02*
G75*
G03X36776Y-79757I-984J0D01*
G74*
G01*
X39150Y-80741D02*
X40308Y-80741D01*
X40315Y-80737D02*
G75*
G03X40709Y-79170I-586J980D01*
G74*
G01*
X38745Y-79178D02*
G75*
G03X39149Y-80741I983J-579D01*
G74*
G01*
X40871Y-79757D02*
G75*
G03X39729Y-78615I-1142J0D01*
G74*
G01*
X39729Y-78615D02*
G75*
G03X38587Y-79757I0J-1142D01*
G74*
G01*
X40713Y-79757D02*
G75*
G03X40713Y-79757I-984J0D01*
G74*
G01*
X19465Y-78930D02*
X20623Y-78930D01*
X20630Y-78926D02*
G75*
G03X21024Y-77359I-586J980D01*
G74*
G01*
X19060Y-77366D02*
G75*
G03X19464Y-78930I983J-579D01*
G74*
G01*
X21186Y-77946D02*
G75*
G03X20044Y-76804I-1142J0D01*
G74*
G01*
X20044Y-76804D02*
G75*
G03X18902Y-77946I0J-1142D01*
G74*
G01*
X21028Y-77946D02*
G75*
G03X21028Y-77946I-984J0D01*
G74*
G01*
X43087Y-78930D02*
X44245Y-78930D01*
X44252Y-78926D02*
G75*
G03X44646Y-77359I-586J980D01*
G74*
G01*
X42682Y-77366D02*
G75*
G03X43086Y-78930I983J-579D01*
G74*
G01*
X44808Y-77946D02*
G75*
G03X43666Y-76804I-1142J0D01*
G74*
G01*
X43666Y-76804D02*
G75*
G03X42524Y-77946I0J-1142D01*
G74*
G01*
X44650Y-77946D02*
G75*
G03X44650Y-77946I-984J0D01*
G74*
G01*
X48587Y-57682D02*
X48587Y-58840D01*
X48591Y-58848D02*
G75*
G03X50158Y-59241I980J586D01*
G74*
G01*
X50151Y-57277D02*
G75*
G03X48587Y-57681I-579J-983D01*
G74*
G01*
X49571Y-59403D02*
G75*
G03X50713Y-58261I0J1142D01*
G74*
G01*
X50713Y-58261D02*
G75*
G03X49571Y-57119I-1142J0D01*
G74*
G01*
X50555Y-58261D02*
G75*
G03X50555Y-58261I-984J0D01*
G74*
G01*
X48587Y-22249D02*
X48587Y-23407D01*
X48591Y-23414D02*
G75*
G03X50158Y-23808I980J586D01*
G74*
G01*
X50151Y-21844D02*
G75*
G03X48587Y-22248I-579J-983D01*
G74*
G01*
X49571Y-23970D02*
G75*
G03X50713Y-22828I0J1142D01*
G74*
G01*
X50713Y-22828D02*
G75*
G03X49571Y-21686I-1142J0D01*
G74*
G01*
X50555Y-22828D02*
G75*
G03X50555Y-22828I-984J0D01*
G74*
G01*
X44650Y-57682D02*
X44650Y-58840D01*
X44654Y-58848D02*
G75*
G03X46221Y-59241I980J586D01*
G74*
G01*
X46214Y-57277D02*
G75*
G03X44650Y-57681I-579J-983D01*
G74*
G01*
X45634Y-59403D02*
G75*
G03X46776Y-58261I0J1142D01*
G74*
G01*
X46776Y-58261D02*
G75*
G03X45634Y-57119I-1142J0D01*
G74*
G01*
X46618Y-58261D02*
G75*
G03X46618Y-58261I-984J0D01*
G74*
G01*
X31276Y-17906D02*
X32434Y-17906D01*
X32441Y-17903D02*
G75*
G03X32835Y-16336I-586J980D01*
G74*
G01*
X30871Y-16343D02*
G75*
G03X31275Y-17906I983J-579D01*
G74*
G01*
X32997Y-16922D02*
G75*
G03X31855Y-15780I-1141J0D01*
G74*
G01*
X31855Y-15780D02*
G75*
G03X30713Y-16922I0J-1142D01*
G74*
G01*
X32839Y-16922D02*
G75*
G03X32839Y-16922I-983J0D01*
G74*
G01*
X27339Y-17906D02*
X28497Y-17906D01*
X28504Y-17903D02*
G75*
G03X28898Y-16336I-586J980D01*
G74*
G01*
X26934Y-16343D02*
G75*
G03X27338Y-17906I983J-579D01*
G74*
G01*
X29060Y-16922D02*
G75*
G03X27918Y-15780I-1142J0D01*
G74*
G01*
X27918Y-15780D02*
G75*
G03X26776Y-16922I0J-1142D01*
G74*
G01*
X28902Y-16922D02*
G75*
G03X28902Y-16922I-984J0D01*
G74*
G01*
X23402Y-17906D02*
X24560Y-17906D01*
X24567Y-17903D02*
G75*
G03X24961Y-16336I-586J980D01*
G74*
G01*
X22997Y-16343D02*
G75*
G03X23401Y-17906I983J-579D01*
G74*
G01*
X25123Y-16922D02*
G75*
G03X23981Y-15780I-1142J0D01*
G74*
G01*
X23981Y-15780D02*
G75*
G03X22839Y-16922I0J-1142D01*
G74*
G01*
X24965Y-16922D02*
G75*
G03X24965Y-16922I-984J0D01*
G74*
G01*
X44650Y-37997D02*
X44650Y-39155D01*
X44654Y-39163D02*
G75*
G03X46221Y-39556I980J586D01*
G74*
G01*
X46214Y-37592D02*
G75*
G03X44650Y-37996I-579J-983D01*
G74*
G01*
X45634Y-39718D02*
G75*
G03X46776Y-38576I0J1142D01*
G74*
G01*
X46776Y-38576D02*
G75*
G03X45634Y-37434I-1142J0D01*
G74*
G01*
X46618Y-38576D02*
G75*
G03X46618Y-38576I-984J0D01*
G74*
G01*
X44650Y-30123D02*
X44650Y-31281D01*
X44654Y-31289D02*
G75*
G03X46221Y-31682I980J586D01*
G74*
G01*
X46214Y-29718D02*
G75*
G03X44650Y-30122I-579J-983D01*
G74*
G01*
X45634Y-31844D02*
G75*
G03X46776Y-30702I0J1142D01*
G74*
G01*
X46776Y-30702D02*
G75*
G03X45634Y-29560I-1142J0D01*
G74*
G01*
X46618Y-30702D02*
G75*
G03X46618Y-30702I-984J0D01*
G74*
G01*
X44650Y-26186D02*
X44650Y-27344D01*
X44654Y-27351D02*
G75*
G03X46221Y-27745I980J586D01*
G74*
G01*
X46214Y-25781D02*
G75*
G03X44650Y-26185I-579J-983D01*
G74*
G01*
X45634Y-27907D02*
G75*
G03X46776Y-26765I0J1142D01*
G74*
G01*
X46776Y-26765D02*
G75*
G03X45634Y-25623I-1142J0D01*
G74*
G01*
X46618Y-26765D02*
G75*
G03X46618Y-26765I-984J0D01*
G74*
G01*
X44650Y-22249D02*
X44650Y-23407D01*
X44654Y-23414D02*
G75*
G03X46221Y-23808I980J586D01*
G74*
G01*
X46214Y-21844D02*
G75*
G03X44650Y-22248I-579J-983D01*
G74*
G01*
X45634Y-23970D02*
G75*
G03X46776Y-22828I0J1142D01*
G74*
G01*
X46776Y-22828D02*
G75*
G03X45634Y-21686I-1142J0D01*
G74*
G01*
X46618Y-22828D02*
G75*
G03X46618Y-22828I-984J0D01*
G74*
G01*
X46619Y-18312D02*
X46619Y-19470D01*
X46622Y-19477D02*
G75*
G03X48189Y-19871I980J586D01*
G74*
G01*
X48182Y-17907D02*
G75*
G03X46619Y-18311I-579J-983D01*
G74*
G01*
X47603Y-20033D02*
G75*
G03X48745Y-18891I0J1142D01*
G74*
G01*
X48745Y-18891D02*
G75*
G03X47603Y-17749I-1142J0D01*
G74*
G01*
X48587Y-18891D02*
G75*
G03X48587Y-18891I-984J0D01*
G74*
G01*
X48587Y-37997D02*
X48587Y-39155D01*
X48591Y-39163D02*
G75*
G03X50158Y-39556I980J586D01*
G74*
G01*
X50151Y-37592D02*
G75*
G03X48587Y-37996I-579J-983D01*
G74*
G01*
X49571Y-39718D02*
G75*
G03X50713Y-38576I0J1142D01*
G74*
G01*
X50713Y-38576D02*
G75*
G03X49571Y-37434I-1142J0D01*
G74*
G01*
X50555Y-38576D02*
G75*
G03X50555Y-38576I-984J0D01*
G74*
G01*
X48587Y-34060D02*
X48587Y-35218D01*
X48591Y-35226D02*
G75*
G03X50158Y-35619I980J586D01*
G74*
G01*
X50151Y-33655D02*
G75*
G03X48587Y-34059I-579J-983D01*
G74*
G01*
X49571Y-35781D02*
G75*
G03X50713Y-34639I0J1142D01*
G74*
G01*
X50713Y-34639D02*
G75*
G03X49571Y-33497I-1142J0D01*
G74*
G01*
X50555Y-34639D02*
G75*
G03X50555Y-34639I-984J0D01*
G74*
G01*
X48587Y-30123D02*
X48587Y-31281D01*
X48591Y-31289D02*
G75*
G03X50158Y-31682I980J586D01*
G74*
G01*
X50151Y-29718D02*
G75*
G03X48587Y-30122I-579J-983D01*
G74*
G01*
X49571Y-31844D02*
G75*
G03X50713Y-30702I0J1142D01*
G74*
G01*
X50713Y-30702D02*
G75*
G03X49571Y-29560I-1142J0D01*
G74*
G01*
X50555Y-30702D02*
G75*
G03X50555Y-30702I-984J0D01*
G74*
G01*
X48587Y-26186D02*
X48587Y-27344D01*
X48591Y-27351D02*
G75*
G03X50158Y-27745I980J586D01*
G74*
G01*
X50151Y-25781D02*
G75*
G03X48587Y-26185I-579J-983D01*
G74*
G01*
X49571Y-27907D02*
G75*
G03X50713Y-26765I0J1142D01*
G74*
G01*
X50713Y-26765D02*
G75*
G03X49571Y-25623I-1142J0D01*
G74*
G01*
X50555Y-26765D02*
G75*
G03X50555Y-26765I-984J0D01*
G74*
G01*
X48587Y-53745D02*
X48587Y-54903D01*
X48591Y-54911D02*
G75*
G03X50158Y-55304I980J586D01*
G74*
G01*
X50151Y-53340D02*
G75*
G03X48587Y-53744I-579J-983D01*
G74*
G01*
X49571Y-55466D02*
G75*
G03X50713Y-54324I0J1142D01*
G74*
G01*
X50713Y-54324D02*
G75*
G03X49571Y-53182I-1142J0D01*
G74*
G01*
X50555Y-54324D02*
G75*
G03X50555Y-54324I-984J0D01*
G74*
G01*
X46619Y-49808D02*
X46619Y-50966D01*
X46622Y-50974D02*
G75*
G03X48189Y-51367I980J586D01*
G74*
G01*
X48182Y-49403D02*
G75*
G03X46619Y-49807I-579J-983D01*
G74*
G01*
X47603Y-51529D02*
G75*
G03X48745Y-50387I0J1142D01*
G74*
G01*
X48745Y-50387D02*
G75*
G03X47603Y-49245I-1142J0D01*
G74*
G01*
X48587Y-50387D02*
G75*
G03X48587Y-50387I-984J0D01*
G74*
G01*
X44650Y-53745D02*
X44650Y-54903D01*
X44654Y-54911D02*
G75*
G03X46221Y-55304I980J586D01*
G74*
G01*
X46214Y-53340D02*
G75*
G03X44650Y-53744I-579J-983D01*
G74*
G01*
X45634Y-55466D02*
G75*
G03X46776Y-54324I0J1142D01*
G74*
G01*
X46776Y-54324D02*
G75*
G03X45634Y-53182I-1142J0D01*
G74*
G01*
X46618Y-54324D02*
G75*
G03X46618Y-54324I-984J0D01*
G74*
G01*
X55397Y-80269D02*
G75*
G03X56469Y-77402I-897J1969D01*
G74*
G01*
X53594Y-80272D02*
X55406Y-80272D01*
X52530Y-77394D02*
G75*
G03X53594Y-80269I1969J-905D01*
G74*
G01*
X56665Y-78300D02*
G75*
G03X54500Y-76135I-2165J0D01*
G74*
G01*
X54500Y-76135D02*
G75*
G03X52335Y-78300I0J-2165D01*
G74*
G01*
X56469Y-78300D02*
G75*
G03X56469Y-78300I-1969J0D01*
G74*
G01*
G54D13*
X44600Y-80200D02*
X49600Y-80200D01*
X49600Y-80200D02*
X49600Y-81200D01*
X49600Y-81200D02*
X44600Y-81200D01*
X49600Y-80700D02*
X50100Y-80700D01*
X44100Y-80700D02*
X44600Y-80700D01*
X44600Y-80500D02*
X44900Y-80200D01*
X44600Y-80200D02*
X44600Y-81200D01*
G54D12*
X13154Y-69493D02*
X13154Y-70651D01*
X13158Y-70659D02*
G75*
G03X14725Y-71052I980J586D01*
G74*
G01*
X14718Y-69088D02*
G75*
G03X13154Y-69492I-579J-983D01*
G74*
G01*
X14138Y-71214D02*
G75*
G03X15280Y-70072I0J1142D01*
G74*
G01*
X15280Y-70072D02*
G75*
G03X14138Y-68930I-1142J0D01*
G74*
G01*
X15122Y-70072D02*
G75*
G03X15122Y-70072I-984J0D01*
G74*
G01*
X17091Y-69493D02*
X17091Y-70651D01*
X17095Y-70659D02*
G75*
G03X18662Y-71052I980J586D01*
G74*
G01*
X18655Y-69088D02*
G75*
G03X17091Y-69492I-579J-983D01*
G74*
G01*
X18075Y-71214D02*
G75*
G03X19217Y-70072I0J1142D01*
G74*
G01*
X19217Y-70072D02*
G75*
G03X18075Y-68930I-1142J0D01*
G74*
G01*
X19059Y-70072D02*
G75*
G03X19059Y-70072I-984J0D01*
G74*
G01*
X15123Y-41934D02*
X15123Y-43092D01*
X15126Y-43100D02*
G75*
G03X16693Y-43493I980J586D01*
G74*
G01*
X16686Y-41529D02*
G75*
G03X15123Y-41933I-579J-983D01*
G74*
G01*
X16107Y-43655D02*
G75*
G03X17249Y-42513I0J1142D01*
G74*
G01*
X17249Y-42513D02*
G75*
G03X16107Y-41371I-1142J0D01*
G74*
G01*
X17091Y-42513D02*
G75*
G03X17091Y-42513I-984J0D01*
G74*
G01*
X13154Y-33981D02*
X13154Y-35139D01*
X13158Y-35147D02*
G75*
G03X14725Y-35540I980J586D01*
G74*
G01*
X14718Y-33576D02*
G75*
G03X13154Y-33981I-579J-983D01*
G74*
G01*
X14138Y-35702D02*
G75*
G03X15280Y-34560I0J1142D01*
G74*
G01*
X15280Y-34560D02*
G75*
G03X14138Y-33418I-1142J0D01*
G74*
G01*
X15122Y-34560D02*
G75*
G03X15122Y-34560I-984J0D01*
G74*
G01*
X23402Y-49402D02*
X24560Y-49402D01*
X24567Y-49399D02*
G75*
G03X24961Y-47832I-586J980D01*
G74*
G01*
X22997Y-47839D02*
G75*
G03X23401Y-49402I983J-579D01*
G74*
G01*
X25123Y-48418D02*
G75*
G03X23981Y-47276I-1142J0D01*
G74*
G01*
X23981Y-47276D02*
G75*
G03X22839Y-48418I0J-1141D01*
G74*
G01*
X24965Y-48418D02*
G75*
G03X24965Y-48418I-984J0D01*
G74*
G01*
X23402Y-45465D02*
X24560Y-45465D01*
X24567Y-45462D02*
G75*
G03X24961Y-43895I-586J980D01*
G74*
G01*
X22997Y-43902D02*
G75*
G03X23401Y-45465I983J-579D01*
G74*
G01*
X25123Y-44481D02*
G75*
G03X23981Y-43339I-1142J0D01*
G74*
G01*
X23981Y-43339D02*
G75*
G03X22839Y-44481I0J-1142D01*
G74*
G01*
X24965Y-44481D02*
G75*
G03X24965Y-44481I-984J0D01*
G74*
G01*
X39150Y-17906D02*
X40308Y-17906D01*
X40315Y-17903D02*
G75*
G03X40709Y-16336I-586J980D01*
G74*
G01*
X38745Y-16343D02*
G75*
G03X39149Y-17906I983J-579D01*
G74*
G01*
X40871Y-16922D02*
G75*
G03X39729Y-15780I-1142J0D01*
G74*
G01*
X39729Y-15780D02*
G75*
G03X38587Y-16922I0J-1142D01*
G74*
G01*
X40713Y-16922D02*
G75*
G03X40713Y-16922I-984J0D01*
G74*
G01*
X39150Y-13969D02*
X40308Y-13969D01*
X40315Y-13966D02*
G75*
G03X40709Y-12399I-586J980D01*
G74*
G01*
X38745Y-12406D02*
G75*
G03X39149Y-13969I983J-579D01*
G74*
G01*
X40871Y-12985D02*
G75*
G03X39729Y-11843I-1142J0D01*
G74*
G01*
X39729Y-11843D02*
G75*
G03X38587Y-12985I0J-1142D01*
G74*
G01*
X40713Y-12985D02*
G75*
G03X40713Y-12985I-984J0D01*
G74*
G01*
X44650Y-33942D02*
X44650Y-35100D01*
X44654Y-35107D02*
G75*
G03X46221Y-35501I980J586D01*
G74*
G01*
X46214Y-33537D02*
G75*
G03X44650Y-33941I-579J-983D01*
G74*
G01*
X45634Y-35663D02*
G75*
G03X46776Y-34521I0J1142D01*
G74*
G01*
X46776Y-34521D02*
G75*
G03X45634Y-33379I-1142J0D01*
G74*
G01*
X46618Y-34521D02*
G75*
G03X46618Y-34521I-984J0D01*
G74*
G01*
X46619Y-41934D02*
X46619Y-43092D01*
X46622Y-43100D02*
G75*
G03X48189Y-43493I980J586D01*
G74*
G01*
X48182Y-41529D02*
G75*
G03X46619Y-41933I-579J-983D01*
G74*
G01*
X47603Y-43655D02*
G75*
G03X48745Y-42513I0J1142D01*
G74*
G01*
X48745Y-42513D02*
G75*
G03X47603Y-41371I-1142J0D01*
G74*
G01*
X48587Y-42513D02*
G75*
G03X48587Y-42513I-984J0D01*
G74*
G01*
X46619Y-73430D02*
X46619Y-74588D01*
X46622Y-74596D02*
G75*
G03X48189Y-74989I980J586D01*
G74*
G01*
X48182Y-73025D02*
G75*
G03X46619Y-73429I-579J-983D01*
G74*
G01*
X47603Y-75151D02*
G75*
G03X48745Y-74009I0J1142D01*
G74*
G01*
X48745Y-74009D02*
G75*
G03X47603Y-72867I-1142J0D01*
G74*
G01*
X48587Y-74009D02*
G75*
G03X48587Y-74009I-984J0D01*
G74*
G01*
X44650Y-65556D02*
X44650Y-66714D01*
X44654Y-66722D02*
G75*
G03X46221Y-67115I980J586D01*
G74*
G01*
X46214Y-65151D02*
G75*
G03X44650Y-65555I-579J-983D01*
G74*
G01*
X45634Y-67277D02*
G75*
G03X46776Y-66135I0J1142D01*
G74*
G01*
X46776Y-66135D02*
G75*
G03X45634Y-64993I-1142J0D01*
G74*
G01*
X46618Y-66135D02*
G75*
G03X46618Y-66135I-984J0D01*
G74*
G01*
X23402Y-80741D02*
X24560Y-80741D01*
X24567Y-80737D02*
G75*
G03X24961Y-79170I-586J980D01*
G74*
G01*
X22997Y-79178D02*
G75*
G03X23401Y-80741I983J-579D01*
G74*
G01*
X25123Y-79757D02*
G75*
G03X23981Y-78615I-1142J0D01*
G74*
G01*
X23981Y-78615D02*
G75*
G03X22839Y-79757I0J-1142D01*
G74*
G01*
X24965Y-79757D02*
G75*
G03X24965Y-79757I-984J0D01*
G74*
G01*
X23402Y-76961D02*
X24560Y-76961D01*
X24567Y-76958D02*
G75*
G03X24961Y-75391I-586J980D01*
G74*
G01*
X22997Y-75398D02*
G75*
G03X23401Y-76961I983J-579D01*
G74*
G01*
X25123Y-75977D02*
G75*
G03X23981Y-74835I-1142J0D01*
G74*
G01*
X23981Y-74835D02*
G75*
G03X22839Y-75977I0J-1142D01*
G74*
G01*
X24965Y-75977D02*
G75*
G03X24965Y-75977I-984J0D01*
G74*
G01*
G54D14*
X14650Y-13800D02*
G75*
G03X14650Y-13800I-900J0D01*
G74*
G01*
X55750Y-13800D02*
G75*
G03X55750Y-13800I-900J0D01*
G74*
G01*
X55750Y-83762D02*
G75*
G03X55750Y-83762I-900J0D01*
G74*
G01*
X14650Y-83762D02*
G75*
G03X14650Y-83762I-900J0D01*
G74*
G01*
G54D13*
X22050Y-83500D02*
X38850Y-83500D01*
X38850Y-83100D02*
X22050Y-83100D01*
X22050Y-86600D02*
X38850Y-86600D01*
X38850Y-86600D02*
X38850Y-83100D01*
X22050Y-83100D02*
X22050Y-86600D01*
X36450Y-86100D02*
G75*
G03X38450Y-86100I1000J1000D01*
G74*
G01*
X34450Y-86100D02*
G75*
G03X36450Y-86100I1000J1000D01*
G74*
G01*
X22450Y-86100D02*
X22450Y-83500D01*
X38450Y-86100D02*
X38450Y-83500D01*
X32450Y-86100D02*
G75*
G03X34450Y-86100I1000J1000D01*
G74*
G01*
X30450Y-86100D02*
G75*
G03X32450Y-86100I1000J1000D01*
G74*
G01*
X28450Y-86100D02*
G75*
G03X30450Y-86100I1000J1000D01*
G74*
G01*
X26450Y-86100D02*
G75*
G03X28450Y-86100I1000J1000D01*
G74*
G01*
X24450Y-86100D02*
G75*
G03X26450Y-86100I1000J1000D01*
G74*
G01*
X22450Y-86100D02*
G75*
G03X24450Y-86100I1000J1000D01*
G74*
G01*
X50700Y-83200D02*
X45900Y-83200D01*
X45900Y-83600D02*
X50700Y-83600D01*
X50700Y-86700D02*
X45900Y-86700D01*
X50700Y-86700D02*
X50700Y-83200D01*
X45900Y-83200D02*
X45900Y-86700D01*
X48300Y-86200D02*
G75*
G03X50300Y-86200I1000J1000D01*
G74*
G01*
X46300Y-86200D02*
G75*
G03X48300Y-86200I1000J1000D01*
G74*
G01*
X46300Y-86200D02*
X46300Y-83600D01*
X50300Y-86200D02*
X50300Y-83600D01*
X42000Y-86225D02*
X42000Y-85825D01*
X42000Y-81225D02*
X42000Y-81625D01*
X41500Y-81625D02*
X42500Y-81625D01*
X42500Y-81625D02*
X42500Y-85825D01*
X42500Y-85825D02*
X41500Y-85825D01*
X41500Y-85825D02*
X41500Y-81625D01*
X41700Y-85825D02*
X41500Y-85625D01*
G54D14*
X55750Y-45475D02*
G75*
G03X55750Y-45475I-900J0D01*
G74*
G01*
X14650Y-45475D02*
G75*
G03X14650Y-45475I-900J0D01*
G74*
G01*
G54D15*
X47016Y-80922D02*
X46850Y-80660D01*
X46730Y-80922D02*
X46730Y-80372D01*
X46921Y-80372D01*
X46969Y-80398D01*
X46992Y-80425D01*
X47016Y-80477D01*
X47016Y-80555D01*
X46992Y-80608D01*
X46969Y-80634D01*
X46921Y-80660D01*
X46730Y-80660D01*
X47302Y-80608D02*
X47254Y-80582D01*
X47230Y-80555D01*
X47207Y-80503D01*
X47207Y-80477D01*
X47230Y-80425D01*
X47254Y-80398D01*
X47302Y-80372D01*
X47397Y-80372D01*
X47445Y-80398D01*
X47469Y-80425D01*
X47492Y-80477D01*
X47492Y-80503D01*
X47469Y-80555D01*
X47445Y-80582D01*
X47397Y-80608D01*
X47302Y-80608D01*
X47254Y-80634D01*
X47230Y-80660D01*
X47207Y-80713D01*
X47207Y-80817D01*
X47230Y-80870D01*
X47254Y-80896D01*
X47302Y-80922D01*
X47397Y-80922D01*
X47445Y-80896D01*
X47469Y-80870D01*
X47492Y-80817D01*
X47492Y-80713D01*
X47469Y-80660D01*
X47445Y-80634D01*
X47397Y-80608D01*
G54D13*
X29178Y-82685D02*
X29150Y-82714D01*
X29064Y-82742D01*
X29007Y-82742D01*
X28921Y-82714D01*
X28864Y-82657D01*
X28835Y-82600D01*
X28807Y-82485D01*
X28807Y-82400D01*
X28835Y-82285D01*
X28864Y-82228D01*
X28921Y-82171D01*
X29007Y-82142D01*
X29064Y-82142D01*
X29150Y-82171D01*
X29178Y-82200D01*
X29550Y-82142D02*
X29664Y-82142D01*
X29721Y-82171D01*
X29778Y-82228D01*
X29807Y-82342D01*
X29807Y-82542D01*
X29778Y-82657D01*
X29721Y-82714D01*
X29664Y-82742D01*
X29550Y-82742D01*
X29492Y-82714D01*
X29435Y-82657D01*
X29407Y-82542D01*
X29407Y-82342D01*
X29435Y-82228D01*
X29492Y-82171D01*
X29550Y-82142D01*
X30064Y-82742D02*
X30064Y-82142D01*
X30407Y-82742D01*
X30407Y-82142D01*
X30692Y-82742D02*
X30692Y-82142D01*
X31035Y-82742D01*
X31035Y-82142D01*
X31178Y-82800D02*
X31635Y-82800D01*
X31864Y-82400D02*
X31807Y-82371D01*
X31778Y-82342D01*
X31750Y-82285D01*
X31750Y-82257D01*
X31778Y-82200D01*
X31807Y-82171D01*
X31864Y-82142D01*
X31978Y-82142D01*
X32035Y-82171D01*
X32064Y-82200D01*
X32092Y-82257D01*
X32092Y-82285D01*
X32064Y-82342D01*
X32035Y-82371D01*
X31978Y-82400D01*
X31864Y-82400D01*
X31807Y-82428D01*
X31778Y-82457D01*
X31750Y-82514D01*
X31750Y-82628D01*
X31778Y-82685D01*
X31807Y-82714D01*
X31864Y-82742D01*
X31978Y-82742D01*
X32035Y-82714D01*
X32064Y-82685D01*
X32092Y-82628D01*
X32092Y-82514D01*
X32064Y-82457D01*
X32035Y-82428D01*
X31978Y-82400D01*
G54D15*
X41672Y-84427D02*
X42065Y-84427D01*
X42144Y-84451D01*
X42196Y-84498D01*
X42222Y-84570D01*
X42222Y-84617D01*
X42222Y-84189D02*
X41672Y-84189D01*
X42065Y-84022D01*
X41672Y-83855D01*
X42222Y-83855D01*
X42222Y-83617D02*
X41672Y-83617D01*
X41672Y-83427D01*
X41698Y-83379D01*
X41725Y-83355D01*
X41777Y-83332D01*
X41855Y-83332D01*
X41908Y-83355D01*
X41934Y-83379D01*
X41960Y-83427D01*
X41960Y-83617D01*
X41725Y-83141D02*
X41698Y-83117D01*
X41672Y-83070D01*
X41672Y-82951D01*
X41698Y-82903D01*
X41725Y-82879D01*
X41777Y-82855D01*
X41829Y-82855D01*
X41908Y-82879D01*
X42222Y-83165D01*
X42222Y-82855D01*
M02*
