M48
;DRILL file {Pcbnew (2013-07-07 BZR 4022)-stable} date 2/5/2016 12:24:57 PM
;FORMAT={-:-/ absolute / inch / decimal}
FMAT,2
INCH,TZ
T1C0.032
T2C0.032
T3C0.045
T4C0.055
T5C0.157
%
G90
G05
M72
T1
X1.3639Y-2.2828
X1.3639Y-2.6765
X1.3639Y-3.0702
X1.3639Y-3.4561
X1.3639Y-3.8576
X1.3639Y-5.4324
X1.3639Y-5.8261
X1.3639Y-6.2198
X1.3639Y-6.6135
X1.3639Y-7.0072
X1.4639Y-2.2828
X1.4639Y-2.6765
X1.4639Y-3.0702
X1.4639Y-3.4561
X1.4639Y-3.8576
X1.4639Y-5.4324
X1.4639Y-5.8261
X1.4639Y-6.2198
X1.4639Y-6.6135
X1.4639Y-7.0072
X1.5607Y-1.8891
X1.5607Y-4.2513
X1.5607Y-5.0387
X1.5607Y-7.4009
X1.6607Y-1.8891
X1.6607Y-4.2513
X1.6607Y-5.0387
X1.6607Y-7.4009
X1.7576Y-2.2828
X1.7576Y-2.6765
X1.7576Y-3.0702
X1.7576Y-3.4639
X1.7576Y-3.8576
X1.7576Y-5.4324
X1.7576Y-5.8261
X1.7576Y-6.2198
X1.7576Y-6.6135
X1.7576Y-7.0072
X1.8576Y-2.2828
X1.8576Y-2.6765
X1.8576Y-3.0702
X1.8576Y-3.4639
X1.8576Y-3.8576
X1.8576Y-5.4324
X1.8576Y-5.8261
X1.8576Y-6.2198
X1.8576Y-6.6135
X1.8576Y-7.0072
X2.0044Y-1.4454
X2.0044Y-1.5454
X2.0044Y-4.595
X2.0044Y-4.695
X2.0044Y-7.7446
X2.0044Y-7.8446
X2.3981Y-1.2486
X2.3981Y-1.3486
X2.3981Y-1.6423
X2.3981Y-1.7423
X2.3981Y-4.3982
X2.3981Y-4.4982
X2.3981Y-4.7919
X2.3981Y-4.8919
X2.3981Y-7.5478
X2.3981Y-7.6478
X2.3981Y-7.9257
X2.3981Y-8.0257
X2.7918Y-1.2486
X2.7918Y-1.3486
X2.7918Y-1.6423
X2.7918Y-1.7423
X2.7918Y-4.3982
X2.7918Y-4.4982
X2.7918Y-4.7919
X2.7918Y-4.8919
X2.7918Y-7.532
X2.7918Y-7.632
X2.7918Y-7.9257
X2.7918Y-8.0257
X3.1855Y-1.2486
X3.1855Y-1.3486
X3.1855Y-1.6423
X3.1855Y-1.7423
X3.1855Y-4.3982
X3.1855Y-4.4982
X3.1855Y-4.7919
X3.1855Y-4.8919
X3.1855Y-7.532
X3.1855Y-7.632
X3.1855Y-7.9257
X3.1855Y-8.0257
X3.5792Y-1.2486
X3.5792Y-1.3486
X3.5792Y-1.6423
X3.5792Y-1.7423
X3.5792Y-4.3982
X3.5792Y-4.4982
X3.5792Y-4.7919
X3.5792Y-4.8919
X3.5792Y-7.532
X3.5792Y-7.632
X3.5792Y-7.9257
X3.5792Y-8.0257
X3.9729Y-1.2486
X3.9729Y-1.3486
X3.9729Y-1.6423
X3.9729Y-1.7423
X3.9729Y-4.3982
X3.9729Y-4.4982
X3.9729Y-4.7919
X3.9729Y-4.8919
X3.9729Y-7.532
X3.9729Y-7.632
X3.9729Y-7.9257
X3.9729Y-8.0257
X4.3666Y-1.4454
X4.3666Y-1.5454
X4.3666Y-4.595
X4.3666Y-4.695
X4.3666Y-7.7446
X4.3666Y-7.8446
X4.5135Y-2.2828
X4.5135Y-2.6765
X4.5135Y-3.0702
X4.5135Y-3.4521
X4.5135Y-3.8576
X4.5135Y-5.4324
X4.5135Y-5.8261
X4.5135Y-6.2198
X4.5135Y-6.6135
X4.5135Y-7.0072
X4.6135Y-2.2828
X4.6135Y-2.6765
X4.6135Y-3.0702
X4.6135Y-3.4521
X4.6135Y-3.8576
X4.6135Y-5.4324
X4.6135Y-5.8261
X4.6135Y-6.2198
X4.6135Y-6.6135
X4.6135Y-7.0072
X4.7103Y-1.8891
X4.7103Y-4.2513
X4.7103Y-5.0387
X4.7103Y-7.4009
X4.8103Y-1.8891
X4.8103Y-4.2513
X4.8103Y-5.0387
X4.8103Y-7.4009
X4.9072Y-2.2828
X4.9072Y-2.6765
X4.9072Y-3.0702
X4.9072Y-3.4639
X4.9072Y-3.8576
X4.9072Y-5.4324
X4.9072Y-5.8261
X4.9072Y-6.2198
X4.9072Y-6.6135
X4.9072Y-7.0072
X5.0072Y-2.2828
X5.0072Y-2.6765
X5.0072Y-3.0702
X5.0072Y-3.4639
X5.0072Y-3.8576
X5.0072Y-5.4324
X5.0072Y-5.8261
X5.0072Y-6.2198
X5.0072Y-6.6135
X5.0072Y-7.0072
X5.45Y-7.78
X5.45Y-7.88
T2
X4.2Y-8.1225
X4.2Y-8.6225
T3
X1.32Y-4.83
X1.92Y-4.83
X4.41Y-8.07
X5.01Y-8.07
T4
X2.345Y-8.51
X2.545Y-8.51
X2.745Y-8.51
X2.945Y-8.51
X3.145Y-8.51
X3.345Y-8.51
X3.545Y-8.51
X3.745Y-8.51
X4.73Y-8.52
X4.93Y-8.52
T5
X1.375Y-1.38
X1.375Y-4.5475
X1.375Y-8.3763
X5.485Y-1.38
X5.485Y-4.5475
X5.485Y-8.3763
T0
M30
