G04 (created by PCBNEW (2013-07-07 BZR 4022)-stable) date 2/5/2016 12:24:54 PM*
%MOIN*%
G04 Gerber Fmt 3.4, Leading zero omitted, Abs format*
%FSLAX34Y34*%
G01*
G70*
G90*
G04 APERTURE LIST*
%ADD10C,0.00590551*%
%ADD11C,0.019685*%
%ADD12C,0.0787*%
%ADD13C,0.0843701*%
%ADD14C,0.0984252*%
%ADD15C,0.16*%
%ADD16C,0.15748*%
%ADD17R,0.1181X0.1181*%
%ADD18C,0.1181*%
%ADD19C,0.06*%
%ADD20C,0.0393701*%
G04 APERTURE END LIST*
G54D10*
G54D11*
X41880Y-32578D02*
X41880Y-31396D01*
X41317Y-32578D02*
X41317Y-31396D01*
X41036Y-31396D01*
X40867Y-31453D01*
X40755Y-31565D01*
X40698Y-31678D01*
X40642Y-31903D01*
X40642Y-32071D01*
X40698Y-32296D01*
X40755Y-32409D01*
X40867Y-32521D01*
X41036Y-32578D01*
X41317Y-32578D01*
X40136Y-31959D02*
X39742Y-31959D01*
X39574Y-32578D02*
X40136Y-32578D01*
X40136Y-31396D01*
X39574Y-31396D01*
X38842Y-31396D02*
X38617Y-31396D01*
X38505Y-31453D01*
X38393Y-31565D01*
X38336Y-31790D01*
X38336Y-32184D01*
X38393Y-32409D01*
X38505Y-32521D01*
X38617Y-32578D01*
X38842Y-32578D01*
X38955Y-32521D01*
X39067Y-32409D01*
X39124Y-32184D01*
X39124Y-31790D01*
X39067Y-31565D01*
X38955Y-31453D01*
X38842Y-31396D01*
X37830Y-32578D02*
X37830Y-31396D01*
X37155Y-32578D01*
X37155Y-31396D01*
X36593Y-32578D02*
X36593Y-31396D01*
X35355Y-32465D02*
X35412Y-32521D01*
X35580Y-32578D01*
X35693Y-32578D01*
X35862Y-32521D01*
X35974Y-32409D01*
X36030Y-32296D01*
X36087Y-32071D01*
X36087Y-31903D01*
X36030Y-31678D01*
X35974Y-31565D01*
X35862Y-31453D01*
X35693Y-31396D01*
X35580Y-31396D01*
X35412Y-31453D01*
X35355Y-31509D01*
X34905Y-32521D02*
X34737Y-32578D01*
X34456Y-32578D01*
X34343Y-32521D01*
X34287Y-32465D01*
X34231Y-32353D01*
X34231Y-32240D01*
X34287Y-32128D01*
X34343Y-32071D01*
X34456Y-32015D01*
X34680Y-31959D01*
X34793Y-31903D01*
X34849Y-31846D01*
X34905Y-31734D01*
X34905Y-31621D01*
X34849Y-31509D01*
X34793Y-31453D01*
X34680Y-31396D01*
X34399Y-31396D01*
X34231Y-31453D01*
X34006Y-32690D02*
X33106Y-32690D01*
X32318Y-31396D02*
X32543Y-31396D01*
X32656Y-31453D01*
X32712Y-31509D01*
X32824Y-31678D01*
X32881Y-31903D01*
X32881Y-32353D01*
X32824Y-32465D01*
X32768Y-32521D01*
X32656Y-32578D01*
X32431Y-32578D01*
X32318Y-32521D01*
X32262Y-32465D01*
X32206Y-32353D01*
X32206Y-32071D01*
X32262Y-31959D01*
X32318Y-31903D01*
X32431Y-31846D01*
X32656Y-31846D01*
X32768Y-31903D01*
X32824Y-31959D01*
X32881Y-32071D01*
X31700Y-32578D02*
X31700Y-31396D01*
X31137Y-32578D02*
X31137Y-31396D01*
X30462Y-32578D01*
X30462Y-31396D01*
X29225Y-32465D02*
X29281Y-32521D01*
X29450Y-32578D01*
X29562Y-32578D01*
X29731Y-32521D01*
X29844Y-32409D01*
X29900Y-32296D01*
X29956Y-32071D01*
X29956Y-31903D01*
X29900Y-31678D01*
X29844Y-31565D01*
X29731Y-31453D01*
X29562Y-31396D01*
X29450Y-31396D01*
X29281Y-31453D01*
X29225Y-31509D01*
X28719Y-32578D02*
X28719Y-31396D01*
X28719Y-31959D02*
X28044Y-31959D01*
X28044Y-32578D02*
X28044Y-31396D01*
X27763Y-32690D02*
X26863Y-32690D01*
X26750Y-31396D02*
X26357Y-32578D01*
X25963Y-31396D01*
X24950Y-32578D02*
X25625Y-32578D01*
X25288Y-32578D02*
X25288Y-31396D01*
X25400Y-31565D01*
X25513Y-31678D01*
X25625Y-31734D01*
X24444Y-32465D02*
X24388Y-32521D01*
X24444Y-32578D01*
X24501Y-32521D01*
X24444Y-32465D01*
X24444Y-32578D01*
X23657Y-31396D02*
X23544Y-31396D01*
X23432Y-31453D01*
X23376Y-31509D01*
X23319Y-31621D01*
X23263Y-31846D01*
X23263Y-32128D01*
X23319Y-32353D01*
X23376Y-32465D01*
X23432Y-32521D01*
X23544Y-32578D01*
X23657Y-32578D01*
X23769Y-32521D01*
X23826Y-32465D01*
X23882Y-32353D01*
X23938Y-32128D01*
X23938Y-31846D01*
X23882Y-31621D01*
X23826Y-31509D01*
X23769Y-31453D01*
X23657Y-31396D01*
G54D12*
X14638Y-62198D03*
X13638Y-62198D03*
X18575Y-30702D03*
X17575Y-30702D03*
X18575Y-26765D03*
X17575Y-26765D03*
X16607Y-74009D03*
X15607Y-74009D03*
X16607Y-50387D03*
X15607Y-50387D03*
X18575Y-66135D03*
X17575Y-66135D03*
X18575Y-62198D03*
X17575Y-62198D03*
X18575Y-58261D03*
X17575Y-58261D03*
X18575Y-54324D03*
X17575Y-54324D03*
X14638Y-66135D03*
X13638Y-66135D03*
X18575Y-38576D03*
X17575Y-38576D03*
X14638Y-58261D03*
X13638Y-58261D03*
X14638Y-54324D03*
X13638Y-54324D03*
X43666Y-14454D03*
X43666Y-15454D03*
X23981Y-12485D03*
X23981Y-13485D03*
X20044Y-14454D03*
X20044Y-15454D03*
X31855Y-12485D03*
X31855Y-13485D03*
X35792Y-12485D03*
X35792Y-13485D03*
X35792Y-43981D03*
X35792Y-44981D03*
X20044Y-45950D03*
X20044Y-46950D03*
X43666Y-45950D03*
X43666Y-46950D03*
X39729Y-47918D03*
X39729Y-48918D03*
X35792Y-47918D03*
X35792Y-48918D03*
X31855Y-47918D03*
X31855Y-48918D03*
X27918Y-47918D03*
X27918Y-48918D03*
X27918Y-43981D03*
X27918Y-44981D03*
X31855Y-43981D03*
X31855Y-44981D03*
X18575Y-34639D03*
X17575Y-34639D03*
X39729Y-43981D03*
X39729Y-44981D03*
X14638Y-38576D03*
X13638Y-38576D03*
X18575Y-22828D03*
X17575Y-22828D03*
X16607Y-18891D03*
X15607Y-18891D03*
X14638Y-26765D03*
X13638Y-26765D03*
X14638Y-22828D03*
X13638Y-22828D03*
X14638Y-30702D03*
X13638Y-30702D03*
X27918Y-12485D03*
X27918Y-13485D03*
X27918Y-75320D03*
X27918Y-76320D03*
X46134Y-62198D03*
X45134Y-62198D03*
X46134Y-70072D03*
X45134Y-70072D03*
X50071Y-70072D03*
X49071Y-70072D03*
X50071Y-66135D03*
X49071Y-66135D03*
X50071Y-62198D03*
X49071Y-62198D03*
X39729Y-75320D03*
X39729Y-76320D03*
X35792Y-75320D03*
X35792Y-76320D03*
X31855Y-75320D03*
X31855Y-76320D03*
X35792Y-16422D03*
X35792Y-17422D03*
X27918Y-79257D03*
X27918Y-80257D03*
X31855Y-79257D03*
X31855Y-80257D03*
X35792Y-79257D03*
X35792Y-80257D03*
X39729Y-79257D03*
X39729Y-80257D03*
X20044Y-77446D03*
X20044Y-78446D03*
X43666Y-77446D03*
X43666Y-78446D03*
X50071Y-58261D03*
X49071Y-58261D03*
X50071Y-22828D03*
X49071Y-22828D03*
X46134Y-58261D03*
X45134Y-58261D03*
X31855Y-16422D03*
X31855Y-17422D03*
X27918Y-16422D03*
X27918Y-17422D03*
X23981Y-16422D03*
X23981Y-17422D03*
X46134Y-38576D03*
X45134Y-38576D03*
X46134Y-30702D03*
X45134Y-30702D03*
X46134Y-26765D03*
X45134Y-26765D03*
X46134Y-22828D03*
X45134Y-22828D03*
X48103Y-18891D03*
X47103Y-18891D03*
X50071Y-38576D03*
X49071Y-38576D03*
X50071Y-34639D03*
X49071Y-34639D03*
X50071Y-30702D03*
X49071Y-30702D03*
X50071Y-26765D03*
X49071Y-26765D03*
X50071Y-54324D03*
X49071Y-54324D03*
X48103Y-50387D03*
X47103Y-50387D03*
X46134Y-54324D03*
X45134Y-54324D03*
X54500Y-77800D03*
X54500Y-78800D03*
G54D13*
X44100Y-80700D03*
X50100Y-80700D03*
G54D12*
X14638Y-70072D03*
X13638Y-70072D03*
X18575Y-70072D03*
X17575Y-70072D03*
X16607Y-42513D03*
X15607Y-42513D03*
X14638Y-34560D03*
X13638Y-34560D03*
X23981Y-47918D03*
X23981Y-48918D03*
X23981Y-43981D03*
X23981Y-44981D03*
X39729Y-16422D03*
X39729Y-17422D03*
X39729Y-12485D03*
X39729Y-13485D03*
X46134Y-34521D03*
X45134Y-34521D03*
X48103Y-42513D03*
X47103Y-42513D03*
X48103Y-74009D03*
X47103Y-74009D03*
X46134Y-66135D03*
X45134Y-66135D03*
X23981Y-79257D03*
X23981Y-80257D03*
X23981Y-75477D03*
X23981Y-76477D03*
G54D14*
X13200Y-48300D03*
X19200Y-48300D03*
G54D15*
X13750Y-13800D03*
X54850Y-13800D03*
G54D16*
X54850Y-83762D03*
G54D15*
X13750Y-83762D03*
G54D17*
X37450Y-85100D03*
G54D18*
X31450Y-85100D03*
X29450Y-85100D03*
X27450Y-85100D03*
X25450Y-85100D03*
X23450Y-85100D03*
X33450Y-85100D03*
X35450Y-85100D03*
G54D17*
X49300Y-85200D03*
G54D18*
X47300Y-85200D03*
G54D19*
X42000Y-86225D03*
X42000Y-81225D03*
G54D15*
X54850Y-45475D03*
X13750Y-45475D03*
G54D20*
X42000Y-81225D02*
X43575Y-81225D01*
X43575Y-81225D02*
X44100Y-80700D01*
X43666Y-77446D02*
X44246Y-77446D01*
X44850Y-79950D02*
X44100Y-80700D01*
X44850Y-78050D02*
X44850Y-79950D01*
X44246Y-77446D02*
X44850Y-78050D01*
X43666Y-77446D02*
X43666Y-51366D01*
X40218Y-47918D02*
X39729Y-47918D01*
X43666Y-51366D02*
X40218Y-47918D01*
X39729Y-75320D02*
X40020Y-75320D01*
X42146Y-77446D02*
X43666Y-77446D01*
X40020Y-75320D02*
X42146Y-77446D01*
X18575Y-54324D02*
X19974Y-54324D01*
X39729Y-74079D02*
X39729Y-75320D01*
X19974Y-54324D02*
X39729Y-74079D01*
X43666Y-45950D02*
X42449Y-45950D01*
X48103Y-49653D02*
X48103Y-50387D01*
X47400Y-48950D02*
X48103Y-49653D01*
X42700Y-48950D02*
X47400Y-48950D01*
X41700Y-47950D02*
X42700Y-48950D01*
X41700Y-46700D02*
X41700Y-47950D01*
X42449Y-45950D02*
X41700Y-46700D01*
X16607Y-50387D02*
X16607Y-45092D01*
X18575Y-23925D02*
X18575Y-22828D01*
X20950Y-26300D02*
X18575Y-23925D01*
X20950Y-40750D02*
X20950Y-26300D01*
X16607Y-45092D02*
X20950Y-40750D01*
X16607Y-18891D02*
X44108Y-18891D01*
X48103Y-18153D02*
X48103Y-18891D01*
X47350Y-17400D02*
X48103Y-18153D01*
X45600Y-17400D02*
X47350Y-17400D01*
X44108Y-18891D02*
X45600Y-17400D01*
X16607Y-18891D02*
X16607Y-20207D01*
X18575Y-22175D02*
X18575Y-22828D01*
X16607Y-20207D02*
X18575Y-22175D01*
X43666Y-45950D02*
X43666Y-45666D01*
X39729Y-46970D02*
X39729Y-47918D01*
X41650Y-45050D02*
X39729Y-46970D01*
X43050Y-45050D02*
X41650Y-45050D01*
X43666Y-45666D02*
X43050Y-45050D01*
X48103Y-50387D02*
X48937Y-50387D01*
X48937Y-50387D02*
X50071Y-51521D01*
X50071Y-51521D02*
X50071Y-54324D01*
X20044Y-14454D02*
X21395Y-14454D01*
X23364Y-12485D02*
X23981Y-12485D01*
X21395Y-14454D02*
X23364Y-12485D01*
X16607Y-18891D02*
X16607Y-16142D01*
X18295Y-14454D02*
X20044Y-14454D01*
X16607Y-16142D02*
X18295Y-14454D01*
X48103Y-18891D02*
X48391Y-18891D01*
X50071Y-20571D02*
X50071Y-22828D01*
X48391Y-18891D02*
X50071Y-20571D01*
X16607Y-50387D02*
X17687Y-50387D01*
X18575Y-51275D02*
X18575Y-54324D01*
X17687Y-50387D02*
X18575Y-51275D01*
X47300Y-85200D02*
X49300Y-85200D01*
X42000Y-86225D02*
X46275Y-86225D01*
X46275Y-86225D02*
X47300Y-85200D01*
X23450Y-85100D02*
X23450Y-85925D01*
X51125Y-82175D02*
X54500Y-78800D01*
X48375Y-82175D02*
X51125Y-82175D01*
X45325Y-85225D02*
X48375Y-82175D01*
X39475Y-85225D02*
X45325Y-85225D01*
X38350Y-86350D02*
X39475Y-85225D01*
X23875Y-86350D02*
X38350Y-86350D01*
X23450Y-85925D02*
X23875Y-86350D01*
X19200Y-48300D02*
X19500Y-48300D01*
X20044Y-47755D02*
X20044Y-46950D01*
X19500Y-48300D02*
X20044Y-47755D01*
X20044Y-46950D02*
X19100Y-46950D01*
X18918Y-44981D02*
X23981Y-44981D01*
X18650Y-45250D02*
X18918Y-44981D01*
X18650Y-46500D02*
X18650Y-45250D01*
X19100Y-46950D02*
X18650Y-46500D01*
X37450Y-85100D02*
X37450Y-84500D01*
X46954Y-15454D02*
X43666Y-15454D01*
X51600Y-20100D02*
X46954Y-15454D01*
X51600Y-77050D02*
X51600Y-20100D01*
X44325Y-84325D02*
X51600Y-77050D01*
X37625Y-84325D02*
X44325Y-84325D01*
X37450Y-84500D02*
X37625Y-84325D01*
X43666Y-15454D02*
X42545Y-15454D01*
X42545Y-15454D02*
X40577Y-17422D01*
X40577Y-17422D02*
X39729Y-17422D01*
X35450Y-85100D02*
X35450Y-84250D01*
X47103Y-46478D02*
X47103Y-42513D01*
X50900Y-50275D02*
X47103Y-46478D01*
X50900Y-76575D02*
X50900Y-50275D01*
X49025Y-78450D02*
X50900Y-76575D01*
X49000Y-78450D02*
X49025Y-78450D01*
X44050Y-83400D02*
X49000Y-78450D01*
X36300Y-83400D02*
X44050Y-83400D01*
X35450Y-84250D02*
X36300Y-83400D01*
X47103Y-42513D02*
X47103Y-41453D01*
X45134Y-39484D02*
X45134Y-38576D01*
X47103Y-41453D02*
X45134Y-39484D01*
X33450Y-85100D02*
X33450Y-83200D01*
X47103Y-79196D02*
X47103Y-74009D01*
X43900Y-82400D02*
X47103Y-79196D01*
X34250Y-82400D02*
X43900Y-82400D01*
X33450Y-83200D02*
X34250Y-82400D01*
X45134Y-70072D02*
X45134Y-72040D01*
X45134Y-72040D02*
X47103Y-74009D01*
X23981Y-80257D02*
X23981Y-80281D01*
X31450Y-82625D02*
X31450Y-85100D01*
X30000Y-81175D02*
X31450Y-82625D01*
X24875Y-81175D02*
X30000Y-81175D01*
X23981Y-80281D02*
X24875Y-81175D01*
X20044Y-78446D02*
X20044Y-79394D01*
X20907Y-80257D02*
X23981Y-80257D01*
X20044Y-79394D02*
X20907Y-80257D01*
X29450Y-85100D02*
X29450Y-82700D01*
X15607Y-76007D02*
X15607Y-74009D01*
X21575Y-81975D02*
X15607Y-76007D01*
X28725Y-81975D02*
X21575Y-81975D01*
X29450Y-82700D02*
X28725Y-81975D01*
X15607Y-74009D02*
X14809Y-74009D01*
X13638Y-72838D02*
X13638Y-70072D01*
X14809Y-74009D02*
X13638Y-72838D01*
X27450Y-85100D02*
X27450Y-83200D01*
X15607Y-48642D02*
X15607Y-42513D01*
X12900Y-51350D02*
X15607Y-48642D01*
X12900Y-75325D02*
X12900Y-51350D01*
X20350Y-82775D02*
X12900Y-75325D01*
X27025Y-82775D02*
X20350Y-82775D01*
X27450Y-83200D02*
X27025Y-82775D01*
X13638Y-38576D02*
X13638Y-40544D01*
X13638Y-40544D02*
X15607Y-42513D01*
X25450Y-85100D02*
X25450Y-84300D01*
X12050Y-49450D02*
X13200Y-48300D01*
X12050Y-76900D02*
X12050Y-49450D01*
X19050Y-83900D02*
X12050Y-76900D01*
X25050Y-83900D02*
X19050Y-83900D01*
X25450Y-84300D02*
X25050Y-83900D01*
X45134Y-62198D02*
X45134Y-63384D01*
X46134Y-64384D02*
X46134Y-66135D01*
X45134Y-63384D02*
X46134Y-64384D01*
X39729Y-79257D02*
X42855Y-79257D01*
X42855Y-79257D02*
X43666Y-78446D01*
X48103Y-74009D02*
X48103Y-71040D01*
X48103Y-71040D02*
X49071Y-70072D01*
X50071Y-70072D02*
X50071Y-68721D01*
X49071Y-67721D02*
X49071Y-66135D01*
X50071Y-68721D02*
X49071Y-67721D01*
X49071Y-62198D02*
X49071Y-63571D01*
X50071Y-64571D02*
X50071Y-66135D01*
X49071Y-63571D02*
X50071Y-64571D01*
X45134Y-54324D02*
X45134Y-55684D01*
X46134Y-56684D02*
X46134Y-58261D01*
X45134Y-55684D02*
X46134Y-56684D01*
X46134Y-54324D02*
X46134Y-51355D01*
X46134Y-51355D02*
X47103Y-50387D01*
X49071Y-58261D02*
X49071Y-59571D01*
X50071Y-60571D02*
X50071Y-62198D01*
X49071Y-59571D02*
X50071Y-60571D01*
X49071Y-54324D02*
X49071Y-56221D01*
X50071Y-57221D02*
X50071Y-58261D01*
X49071Y-56221D02*
X50071Y-57221D01*
X14638Y-62198D02*
X14638Y-60688D01*
X13638Y-59688D02*
X13638Y-58261D01*
X14638Y-60688D02*
X13638Y-59688D01*
X13638Y-22828D02*
X13638Y-24438D01*
X14638Y-25438D02*
X14638Y-26765D01*
X13638Y-24438D02*
X14638Y-25438D01*
X31855Y-79257D02*
X33257Y-79257D01*
X34257Y-80257D02*
X35792Y-80257D01*
X33257Y-79257D02*
X34257Y-80257D01*
X18575Y-34639D02*
X18575Y-33275D01*
X17575Y-32275D02*
X17575Y-30702D01*
X18575Y-33275D02*
X17575Y-32275D01*
X18575Y-38576D02*
X18575Y-36625D01*
X17575Y-35625D02*
X17575Y-34639D01*
X18575Y-36625D02*
X17575Y-35625D01*
X13638Y-26765D02*
X13638Y-28538D01*
X14638Y-29538D02*
X14638Y-30702D01*
X13638Y-28538D02*
X14638Y-29538D01*
X13638Y-30702D02*
X13638Y-32088D01*
X14638Y-33088D02*
X14638Y-34560D01*
X13638Y-32088D02*
X14638Y-33088D01*
X16607Y-42513D02*
X16607Y-39544D01*
X16607Y-39544D02*
X17575Y-38576D01*
X14638Y-70072D02*
X14638Y-68688D01*
X13638Y-67688D02*
X13638Y-66135D01*
X14638Y-68688D02*
X13638Y-67688D01*
X17575Y-62198D02*
X17575Y-63625D01*
X18575Y-64625D02*
X18575Y-66135D01*
X17575Y-63625D02*
X18575Y-64625D01*
X14638Y-66135D02*
X14638Y-64988D01*
X13638Y-63988D02*
X13638Y-62198D01*
X14638Y-64988D02*
X13638Y-63988D01*
X17575Y-58261D02*
X17575Y-59675D01*
X18575Y-60675D02*
X18575Y-62198D01*
X17575Y-59675D02*
X18575Y-60675D01*
X17575Y-54324D02*
X17575Y-55525D01*
X18575Y-56525D02*
X18575Y-58261D01*
X17575Y-55525D02*
X18575Y-56525D01*
X30307Y-80257D02*
X31855Y-80257D01*
X29307Y-79257D02*
X30307Y-80257D01*
X27918Y-79257D02*
X29307Y-79257D01*
X13638Y-54324D02*
X13638Y-55488D01*
X14638Y-56488D02*
X14638Y-58261D01*
X13638Y-55488D02*
X14638Y-56488D01*
X14638Y-54324D02*
X14638Y-51355D01*
X14638Y-51355D02*
X15607Y-50387D01*
X35792Y-79257D02*
X37207Y-79257D01*
X38207Y-80257D02*
X39729Y-80257D01*
X37207Y-79257D02*
X38207Y-80257D01*
X20044Y-15454D02*
X23012Y-15454D01*
X23012Y-15454D02*
X23981Y-16422D01*
X48103Y-42513D02*
X48103Y-39544D01*
X48103Y-39544D02*
X49071Y-38576D01*
X46134Y-34521D02*
X46134Y-32484D01*
X45134Y-31484D02*
X45134Y-30702D01*
X46134Y-32484D02*
X45134Y-31484D01*
X35792Y-13485D02*
X37164Y-13485D01*
X38164Y-12485D02*
X39729Y-12485D01*
X37164Y-13485D02*
X38164Y-12485D01*
X35792Y-17422D02*
X37377Y-17422D01*
X38377Y-16422D02*
X39729Y-16422D01*
X37377Y-17422D02*
X38377Y-16422D01*
X23981Y-43981D02*
X25581Y-43981D01*
X26581Y-44981D02*
X27918Y-44981D01*
X25581Y-43981D02*
X26581Y-44981D01*
X49071Y-22828D02*
X49071Y-24571D01*
X49071Y-24571D02*
X50071Y-25571D01*
X50071Y-25571D02*
X50071Y-26765D01*
X23981Y-79257D02*
X25007Y-79257D01*
X26007Y-80257D02*
X27918Y-80257D01*
X25007Y-79257D02*
X26007Y-80257D01*
X46134Y-22828D02*
X46134Y-19859D01*
X46134Y-19859D02*
X47103Y-18891D01*
X46134Y-26765D02*
X46134Y-25584D01*
X46134Y-25584D02*
X45134Y-24584D01*
X45134Y-24584D02*
X45134Y-22828D01*
X46134Y-30702D02*
X46134Y-29484D01*
X46134Y-29484D02*
X45134Y-28484D01*
X45134Y-28484D02*
X45134Y-26765D01*
X49071Y-34639D02*
X49071Y-35771D01*
X50071Y-36771D02*
X50071Y-38576D01*
X49071Y-35771D02*
X50071Y-36771D01*
X49071Y-30702D02*
X49071Y-32071D01*
X50071Y-33071D02*
X50071Y-34639D01*
X49071Y-32071D02*
X50071Y-33071D01*
X49071Y-26765D02*
X49071Y-28421D01*
X49071Y-28421D02*
X50071Y-29421D01*
X50071Y-29421D02*
X50071Y-30702D01*
X14638Y-22828D02*
X14638Y-19859D01*
X14638Y-19859D02*
X15607Y-18891D01*
X31855Y-17422D02*
X33427Y-17422D01*
X34427Y-16422D02*
X35792Y-16422D01*
X33427Y-17422D02*
X34427Y-16422D01*
X31855Y-13485D02*
X33364Y-13485D01*
X34364Y-12485D02*
X35792Y-12485D01*
X33364Y-13485D02*
X34364Y-12485D01*
X27918Y-13485D02*
X29214Y-13485D01*
X30214Y-12485D02*
X31855Y-12485D01*
X29214Y-13485D02*
X30214Y-12485D01*
X23981Y-75477D02*
X25277Y-75477D01*
X26120Y-76320D02*
X27918Y-76320D01*
X25277Y-75477D02*
X26120Y-76320D01*
X27918Y-17422D02*
X29327Y-17422D01*
X30327Y-16422D02*
X31855Y-16422D01*
X29327Y-17422D02*
X30327Y-16422D01*
X23981Y-17422D02*
X25527Y-17422D01*
X26527Y-16422D02*
X27918Y-16422D01*
X25527Y-17422D02*
X26527Y-16422D01*
X23981Y-13485D02*
X25714Y-13485D01*
X27832Y-12400D02*
X27918Y-12485D01*
X26800Y-12400D02*
X27832Y-12400D01*
X25714Y-13485D02*
X26800Y-12400D01*
X46134Y-38576D02*
X46134Y-36884D01*
X45134Y-35884D02*
X45134Y-34521D01*
X46134Y-36884D02*
X45134Y-35884D01*
X20044Y-77446D02*
X23012Y-77446D01*
X23012Y-77446D02*
X23981Y-76477D01*
X46134Y-70072D02*
X46134Y-68734D01*
X45134Y-67734D02*
X45134Y-66135D01*
X46134Y-68734D02*
X45134Y-67734D01*
X39729Y-13485D02*
X42697Y-13485D01*
X42697Y-13485D02*
X43666Y-14454D01*
X23981Y-48918D02*
X23018Y-48918D01*
X21100Y-45950D02*
X20044Y-45950D01*
X22150Y-47000D02*
X21100Y-45950D01*
X22150Y-48050D02*
X22150Y-47000D01*
X23018Y-48918D02*
X22150Y-48050D01*
X27918Y-75320D02*
X29270Y-75320D01*
X30270Y-76320D02*
X31855Y-76320D01*
X29270Y-75320D02*
X30270Y-76320D01*
X13638Y-34560D02*
X13638Y-35888D01*
X14638Y-36888D02*
X14638Y-38576D01*
X13638Y-35888D02*
X14638Y-36888D01*
X16607Y-74009D02*
X16607Y-71040D01*
X16607Y-71040D02*
X17575Y-70072D01*
X35792Y-47918D02*
X37218Y-47918D01*
X38218Y-48918D02*
X39729Y-48918D01*
X37218Y-47918D02*
X38218Y-48918D01*
X31855Y-43981D02*
X33281Y-43981D01*
X34281Y-44981D02*
X35792Y-44981D01*
X33281Y-43981D02*
X34281Y-44981D01*
X35792Y-43981D02*
X37081Y-43981D01*
X38081Y-44981D02*
X39729Y-44981D01*
X37081Y-43981D02*
X38081Y-44981D01*
X39729Y-43981D02*
X44431Y-43981D01*
X44749Y-46950D02*
X43666Y-46950D01*
X45350Y-46350D02*
X44749Y-46950D01*
X45350Y-44900D02*
X45350Y-46350D01*
X44431Y-43981D02*
X45350Y-44900D01*
X31855Y-47918D02*
X33068Y-47918D01*
X34068Y-48918D02*
X35792Y-48918D01*
X33068Y-47918D02*
X34068Y-48918D01*
X27918Y-47918D02*
X29418Y-47918D01*
X30418Y-48918D02*
X31855Y-48918D01*
X29418Y-47918D02*
X30418Y-48918D01*
X31855Y-75320D02*
X33220Y-75320D01*
X34220Y-76320D02*
X35792Y-76320D01*
X33220Y-75320D02*
X34220Y-76320D01*
X27918Y-43981D02*
X29281Y-43981D01*
X30281Y-44981D02*
X31855Y-44981D01*
X29281Y-43981D02*
X30281Y-44981D01*
X18575Y-30702D02*
X18575Y-29475D01*
X17575Y-28475D02*
X17575Y-26765D01*
X18575Y-29475D02*
X17575Y-28475D01*
X18575Y-26765D02*
X18575Y-25475D01*
X17575Y-24475D02*
X17575Y-22828D01*
X18575Y-25475D02*
X17575Y-24475D01*
X17575Y-66135D02*
X17575Y-67275D01*
X18575Y-68275D02*
X18575Y-70072D01*
X17575Y-67275D02*
X18575Y-68275D01*
X23981Y-47918D02*
X25368Y-47918D01*
X26368Y-48918D02*
X27918Y-48918D01*
X25368Y-47918D02*
X26368Y-48918D01*
X50100Y-80700D02*
X50600Y-80700D01*
X53500Y-77800D02*
X54500Y-77800D01*
X50600Y-80700D02*
X53500Y-77800D01*
X35792Y-75320D02*
X37220Y-75320D01*
X38220Y-76320D02*
X39729Y-76320D01*
X37220Y-75320D02*
X38220Y-76320D01*
X45134Y-58261D02*
X45134Y-59634D01*
X46134Y-60634D02*
X46134Y-62198D01*
X45134Y-59634D02*
X46134Y-60634D01*
M02*
