G04 (created by PCBNEW (2013-07-07 BZR 4022)-stable) date 2/5/2016 12:24:55 PM*
%MOIN*%
G04 Gerber Fmt 3.4, Leading zero omitted, Abs format*
%FSLAX34Y34*%
G01*
G70*
G90*
G04 APERTURE LIST*
%ADD10C,0.00590551*%
%ADD11C,0.0787*%
%ADD12C,0.0843701*%
%ADD13C,0.0984252*%
%ADD14C,0.16*%
%ADD15C,0.15748*%
%ADD16R,0.1181X0.1181*%
%ADD17C,0.1181*%
%ADD18C,0.06*%
G04 APERTURE END LIST*
G54D10*
G54D11*
X14638Y-62198D03*
X13638Y-62198D03*
X18575Y-30702D03*
X17575Y-30702D03*
X18575Y-26765D03*
X17575Y-26765D03*
X16607Y-74009D03*
X15607Y-74009D03*
X16607Y-50387D03*
X15607Y-50387D03*
X18575Y-66135D03*
X17575Y-66135D03*
X18575Y-62198D03*
X17575Y-62198D03*
X18575Y-58261D03*
X17575Y-58261D03*
X18575Y-54324D03*
X17575Y-54324D03*
X14638Y-66135D03*
X13638Y-66135D03*
X18575Y-38576D03*
X17575Y-38576D03*
X14638Y-58261D03*
X13638Y-58261D03*
X14638Y-54324D03*
X13638Y-54324D03*
X43666Y-14454D03*
X43666Y-15454D03*
X23981Y-12485D03*
X23981Y-13485D03*
X20044Y-14454D03*
X20044Y-15454D03*
X31855Y-12485D03*
X31855Y-13485D03*
X35792Y-12485D03*
X35792Y-13485D03*
X35792Y-43981D03*
X35792Y-44981D03*
X20044Y-45950D03*
X20044Y-46950D03*
X43666Y-45950D03*
X43666Y-46950D03*
X39729Y-47918D03*
X39729Y-48918D03*
X35792Y-47918D03*
X35792Y-48918D03*
X31855Y-47918D03*
X31855Y-48918D03*
X27918Y-47918D03*
X27918Y-48918D03*
X27918Y-43981D03*
X27918Y-44981D03*
X31855Y-43981D03*
X31855Y-44981D03*
X18575Y-34639D03*
X17575Y-34639D03*
X39729Y-43981D03*
X39729Y-44981D03*
X14638Y-38576D03*
X13638Y-38576D03*
X18575Y-22828D03*
X17575Y-22828D03*
X16607Y-18891D03*
X15607Y-18891D03*
X14638Y-26765D03*
X13638Y-26765D03*
X14638Y-22828D03*
X13638Y-22828D03*
X14638Y-30702D03*
X13638Y-30702D03*
X27918Y-12485D03*
X27918Y-13485D03*
X27918Y-75320D03*
X27918Y-76320D03*
X46134Y-62198D03*
X45134Y-62198D03*
X46134Y-70072D03*
X45134Y-70072D03*
X50071Y-70072D03*
X49071Y-70072D03*
X50071Y-66135D03*
X49071Y-66135D03*
X50071Y-62198D03*
X49071Y-62198D03*
X39729Y-75320D03*
X39729Y-76320D03*
X35792Y-75320D03*
X35792Y-76320D03*
X31855Y-75320D03*
X31855Y-76320D03*
X35792Y-16422D03*
X35792Y-17422D03*
X27918Y-79257D03*
X27918Y-80257D03*
X31855Y-79257D03*
X31855Y-80257D03*
X35792Y-79257D03*
X35792Y-80257D03*
X39729Y-79257D03*
X39729Y-80257D03*
X20044Y-77446D03*
X20044Y-78446D03*
X43666Y-77446D03*
X43666Y-78446D03*
X50071Y-58261D03*
X49071Y-58261D03*
X50071Y-22828D03*
X49071Y-22828D03*
X46134Y-58261D03*
X45134Y-58261D03*
X31855Y-16422D03*
X31855Y-17422D03*
X27918Y-16422D03*
X27918Y-17422D03*
X23981Y-16422D03*
X23981Y-17422D03*
X46134Y-38576D03*
X45134Y-38576D03*
X46134Y-30702D03*
X45134Y-30702D03*
X46134Y-26765D03*
X45134Y-26765D03*
X46134Y-22828D03*
X45134Y-22828D03*
X48103Y-18891D03*
X47103Y-18891D03*
X50071Y-38576D03*
X49071Y-38576D03*
X50071Y-34639D03*
X49071Y-34639D03*
X50071Y-30702D03*
X49071Y-30702D03*
X50071Y-26765D03*
X49071Y-26765D03*
X50071Y-54324D03*
X49071Y-54324D03*
X48103Y-50387D03*
X47103Y-50387D03*
X46134Y-54324D03*
X45134Y-54324D03*
X54500Y-77800D03*
X54500Y-78800D03*
G54D12*
X44100Y-80700D03*
X50100Y-80700D03*
G54D11*
X14638Y-70072D03*
X13638Y-70072D03*
X18575Y-70072D03*
X17575Y-70072D03*
X16607Y-42513D03*
X15607Y-42513D03*
X14638Y-34560D03*
X13638Y-34560D03*
X23981Y-47918D03*
X23981Y-48918D03*
X23981Y-43981D03*
X23981Y-44981D03*
X39729Y-16422D03*
X39729Y-17422D03*
X39729Y-12485D03*
X39729Y-13485D03*
X46134Y-34521D03*
X45134Y-34521D03*
X48103Y-42513D03*
X47103Y-42513D03*
X48103Y-74009D03*
X47103Y-74009D03*
X46134Y-66135D03*
X45134Y-66135D03*
X23981Y-79257D03*
X23981Y-80257D03*
X23981Y-75477D03*
X23981Y-76477D03*
G54D13*
X13200Y-48300D03*
X19200Y-48300D03*
G54D14*
X13750Y-13800D03*
X54850Y-13800D03*
G54D15*
X54850Y-83762D03*
G54D14*
X13750Y-83762D03*
G54D16*
X37450Y-85100D03*
G54D17*
X31450Y-85100D03*
X29450Y-85100D03*
X27450Y-85100D03*
X25450Y-85100D03*
X23450Y-85100D03*
X33450Y-85100D03*
X35450Y-85100D03*
G54D16*
X49300Y-85200D03*
G54D17*
X47300Y-85200D03*
G54D18*
X42000Y-86225D03*
X42000Y-81225D03*
G54D14*
X54850Y-45475D03*
X13750Y-45475D03*
M02*
