G04 (created by PCBNEW (2013-07-07 BZR 4022)-stable) date 2/5/2016 12:24:55 PM*
%MOIN*%
G04 Gerber Fmt 3.4, Leading zero omitted, Abs format*
%FSLAX34Y34*%
G01*
G70*
G90*
G04 APERTURE LIST*
%ADD10C,0.00590551*%
%ADD11C,0.012*%
%ADD12C,0.008*%
G04 APERTURE END LIST*
G54D10*
G54D11*
X13700Y-48800D02*
X18700Y-48800D01*
X18700Y-48800D02*
X18700Y-47800D01*
X18700Y-47800D02*
X13700Y-47800D01*
X18700Y-48300D02*
X19200Y-48300D01*
X13200Y-48300D02*
X13700Y-48300D01*
X13700Y-48500D02*
X14000Y-48800D01*
X13700Y-48800D02*
X13700Y-47800D01*
G54D12*
X15552Y-50172D02*
X15552Y-50565D01*
X15576Y-50644D01*
X15623Y-50696D01*
X15695Y-50722D01*
X15742Y-50722D01*
X15314Y-50722D02*
X15314Y-50172D01*
X15147Y-50565D01*
X14980Y-50172D01*
X14980Y-50722D01*
X14742Y-50722D02*
X14742Y-50172D01*
X14552Y-50172D01*
X14504Y-50198D01*
X14480Y-50225D01*
X14457Y-50277D01*
X14457Y-50355D01*
X14480Y-50408D01*
X14504Y-50434D01*
X14552Y-50460D01*
X14742Y-50460D01*
X13980Y-50722D02*
X14266Y-50722D01*
X14123Y-50722D02*
X14123Y-50172D01*
X14171Y-50251D01*
X14219Y-50303D01*
X14266Y-50329D01*
M02*
